<?xml version="1.0" encoding="UTF-8"?>
<svg version="1.1" xmlns="http://www.w3.org/2000/svg" width="2481" height="2814">
<path d="M0 0 C4.25366072 0.4826849 6.63005591 3.15514839 9.5625 6 C13.4328975 9.65695646 17.34060301 13.16765292 21.5 16.5 C25.47629426 19.69931722 29.26668298 23.02584945 33 26.5 C37.61001639 30.7895776 42.37783236 34.80410897 47.28515625 38.75390625 C51.06567286 41.88167179 54.64480875 45.21273883 58.25390625 48.53515625 C60.91875166 50.92707297 63.64831825 53.19254884 66.4375 55.4375 C70.97316443 59.09571015 75.2570117 62.94742965 79.51928711 66.91381836 C82.75193975 69.90427 86.06696766 72.73779007 89.5 75.5 C94.01777813 79.13499389 98.27818516 82.9671029 102.51953125 86.9140625 C105.75211747 89.90441358 109.06705866 92.73786329 112.5 95.5 C117.01777813 99.13499389 121.27818516 102.9671029 125.51953125 106.9140625 C128.75211747 109.90441358 132.06705866 112.73786329 135.5 115.5 C139.47629426 118.69931722 143.26668298 122.02584945 147 125.5 C151.61001639 129.7895776 156.37783236 133.80410897 161.28515625 137.75390625 C165.06567286 140.88167179 168.64480875 144.21273883 172.25390625 147.53515625 C174.91875166 149.92707297 177.64831825 152.19254884 180.4375 154.4375 C184.97316443 158.09571015 189.2570117 161.94742965 193.51928711 165.91381836 C196.75193975 168.90427 200.06696766 171.73779007 203.5 174.5 C208.01777813 178.13499389 212.27818516 181.9671029 216.51953125 185.9140625 C219.75211747 188.90441358 223.06705866 191.73786329 226.5 194.5 C231.01777813 198.13499389 235.27818516 201.9671029 239.51953125 205.9140625 C242.75211747 208.90441358 246.06705866 211.73786329 249.5 214.5 C253.47629426 217.69931722 257.26668298 221.02584945 261 224.5 C265.61001639 228.7895776 270.37783236 232.80410897 275.28515625 236.75390625 C279.06567286 239.88167179 282.64480875 243.21273883 286.25390625 246.53515625 C288.91875166 248.92707297 291.64831825 251.19254884 294.4375 253.4375 C298.97316443 257.09571015 303.2570117 260.94742965 307.51928711 264.91381836 C310.75193975 267.90427 314.06696766 270.73779007 317.5 273.5 C322.01777813 277.13499389 326.27818516 280.9671029 330.51953125 284.9140625 C333.75211747 287.90441358 337.06705866 290.73786329 340.5 293.5 C344.47629426 296.69931722 348.26668298 300.02584945 352 303.5 C356.61001639 307.7895776 361.37783236 311.80410897 366.28515625 315.75390625 C370.06567286 318.88167179 373.64480875 322.21273883 377.25390625 325.53515625 C379.91875166 327.92707297 382.64831825 330.19254884 385.4375 332.4375 C389.97316443 336.09571015 394.2570117 339.94742965 398.51928711 343.91381836 C401.75193975 346.90427 405.06696766 349.73779007 408.5 352.5 C413.01777813 356.13499389 417.27818516 359.9671029 421.51953125 363.9140625 C424.75211747 366.90441358 428.06705866 369.73786329 431.5 372.5 C436.01777813 376.13499389 440.27818516 379.9671029 444.51953125 383.9140625 C447.75211747 386.90441358 451.06705866 389.73786329 454.5 392.5 C458.47629426 395.69931722 462.26668298 399.02584945 466 402.5 C470.61001639 406.7895776 475.37783236 410.80410897 480.28515625 414.75390625 C484.06567286 417.88167179 487.64480875 421.21273883 491.25390625 424.53515625 C493.91875166 426.92707297 496.64831825 429.19254884 499.4375 431.4375 C503.97316443 435.09571015 508.2570117 438.94742965 512.51928711 442.91381836 C515.75193975 445.90427 519.06696766 448.73779007 522.5 451.5 C527.01777813 455.13499389 531.27818516 458.9671029 535.51953125 462.9140625 C538.75211747 465.90441358 542.06705866 468.73786329 545.5 471.5 C550.01777813 475.13499389 554.27818516 478.9671029 558.51953125 482.9140625 C561.75211747 485.90441358 565.06705866 488.73786329 568.5 491.5 C572.47629426 494.69931722 576.26668298 498.02584945 580 501.5 C584.61001639 505.7895776 589.37783236 509.80410897 594.28515625 513.75390625 C598.06567286 516.88167179 601.64480875 520.21273883 605.25390625 523.53515625 C607.91875166 525.92707297 610.64831825 528.19254884 613.4375 530.4375 C617.97316443 534.09571015 622.2570117 537.94742965 626.51928711 541.91381836 C629.75193975 544.90427 633.06696766 547.73779007 636.5 550.5 C641.01777813 554.13499389 645.27818516 557.9671029 649.51953125 561.9140625 C652.75211747 564.90441358 656.06705866 567.73786329 659.5 570.5 C664.01777813 574.13499389 668.27818516 577.9671029 672.51953125 581.9140625 C675.75211747 584.90441358 679.06705866 587.73786329 682.5 590.5 C686.47629426 593.69931722 690.26668298 597.02584945 694 600.5 C698.61001639 604.7895776 703.37783236 608.80410897 708.28515625 612.75390625 C712.06567286 615.88167179 715.64480875 619.21273883 719.25390625 622.53515625 C721.91875166 624.92707297 724.64831825 627.19254884 727.4375 629.4375 C731.97316443 633.09571015 736.2570117 636.94742965 740.51928711 640.91381836 C743.75193975 643.90427 747.06696766 646.73779007 750.5 649.5 C755.01777813 653.13499389 759.27818516 656.9671029 763.51953125 660.9140625 C766.75211747 663.90441358 770.06705866 666.73786329 773.5 669.5 C778.01777813 673.13499389 782.27818516 676.9671029 786.51953125 680.9140625 C789.75211747 683.90441358 793.06705866 686.73786329 796.5 689.5 C800.47629426 692.69931722 804.26668298 696.02584945 808 699.5 C812.61001639 703.7895776 817.37783236 707.80410897 822.28515625 711.75390625 C826.06567286 714.88167179 829.64480875 718.21273883 833.25390625 721.53515625 C835.91875166 723.92707297 838.64831825 726.19254884 841.4375 728.4375 C845.97316443 732.09571015 850.2570117 735.94742965 854.51928711 739.91381836 C857.75193975 742.90427 861.06696766 745.73779007 864.5 748.5 C869.01777813 752.13499389 873.27818516 755.9671029 877.51953125 759.9140625 C881.6054577 763.69380841 885.87742411 767.19493536 890.21484375 770.68359375 C894.73267025 774.44105674 899.02607998 778.44974037 903.24161148 782.54317856 C905.02281417 784.11813351 905.02281417 784.11813351 907.46612167 785.31451797 C911.14906369 787.50923276 914.3099086 789.63091715 915.56299114 793.93274784 C916.46747665 800.03582691 916.16028129 806.21464505 916.00488281 812.36230469 C915.98899488 814.4523327 915.97772595 816.54240016 915.97071838 818.63247681 C915.94679869 823.12611027 915.89232217 827.61796389 915.81458282 832.1109848 C915.69378314 839.22238434 915.6537866 846.33283815 915.62689209 853.44512939 C915.54792784 871.11086497 915.37170205 888.77547179 915.15802002 906.44006348 C914.99251112 920.16788776 914.85780143 933.89439853 914.82043147 947.62324834 C914.7977395 954.68691979 914.71013223 961.74582731 914.57293653 968.8081584 C914.50183287 973.21206223 914.48948857 977.6147297 914.49302483 982.01914597 C914.48286978 984.05265881 914.44879872 986.08622318 914.38833046 988.11886215 C913.81347222 999.82681164 913.81347222 999.82681164 919.04143524 1009.81082916 C921.92613919 1012.48325286 925.00730042 1014.74696455 928.30358458 1016.88356256 C930.68704392 1018.45215432 932.86369869 1020.24768047 935.0625 1022.0625 C936.24199219 1022.99449219 936.24199219 1022.99449219 937.4453125 1023.9453125 C941.05852047 1026.85134827 944.58221737 1029.85895582 948.11352539 1032.86352539 C951.54590964 1035.78017061 955.0060174 1038.65700688 958.5 1041.5 C963.1045358 1045.24787798 967.64019191 1049.06983444 972.1640625 1052.9140625 C976.44740948 1056.54780235 980.787994 1060.10662437 985.14453125 1063.65234375 C990.48130877 1068.04003634 995.73738641 1072.52385012 1001 1077 C999.4805627 1081.8603687 996.67081346 1085.06079356 993.375 1088.8125 C992.859375 1089.40998047 992.34375 1090.00746094 991.8125 1090.62304688 C990.54753728 1092.08712409 989.27456166 1093.54427155 988 1095 C983.66370183 1092.21932449 979.70937211 1089.18534286 975.8125 1085.8125 C974.66339904 1084.82868068 973.51364963 1083.84561829 972.36328125 1082.86328125 C971.79561035 1082.37811035 971.22793945 1081.89293945 970.64306641 1081.39306641 C968.28810848 1079.396426 965.8960583 1077.44701662 963.5 1075.5 C958.8954642 1071.75212202 954.35980809 1067.93016556 949.8359375 1064.0859375 C945.53490247 1060.43719215 941.17653903 1056.86355273 936.80078125 1053.3046875 C933.73224213 1050.77966925 930.70960188 1048.20515231 927.6875 1045.625 C923.25148397 1041.84207508 918.73399357 1038.19467263 914.125 1034.625 C908.37972845 1030.16948329 902.86904559 1025.48856595 897.39941406 1020.70019531 C892.92239615 1016.78368043 888.36457063 1012.98672933 883.7421875 1009.2421875 C880.62999852 1006.69746317 877.56273503 1004.10381775 874.5 1001.5 C869.65190534 997.38004393 864.75153834 993.33203775 859.81640625 989.31640625 C856.66214808 986.72212734 853.5479702 984.08393735 850.4375 981.4375 C846.66911061 978.23260809 842.87753972 975.07312306 839 972 C834.54746299 968.47116597 830.21314021 964.81770671 825.88671875 961.13671875 C822.45428391 958.21995487 818.99407185 955.34306574 815.5 952.5 C810.8954642 948.75212202 806.35980809 944.93016556 801.8359375 941.0859375 C797.53986956 937.44140593 793.18631659 933.8721266 788.81640625 930.31640625 C785.66214808 927.72212734 782.5479702 925.08393735 779.4375 922.4375 C775.66911061 919.23260809 771.87753972 916.07312306 768 913 C763.54746299 909.47116597 759.21314021 905.81770671 754.88671875 902.13671875 C751.45428391 899.21995487 747.99407185 896.34306574 744.5 893.5 C739.8954642 889.75212202 735.35980809 885.93016556 730.8359375 882.0859375 C726.53986956 878.44140593 722.18631659 874.8721266 717.81640625 871.31640625 C714.66214808 868.72212734 711.5479702 866.08393735 708.4375 863.4375 C704.66911061 860.23260809 700.87753972 857.07312306 697 854 C692.54746299 850.47116597 688.21314021 846.81770671 683.88671875 843.13671875 C680.45428391 840.21995487 676.99407185 837.34306574 673.5 834.5 C668.8954642 830.75212202 664.35980809 826.93016556 659.8359375 823.0859375 C655.53986956 819.44140593 651.18631659 815.8721266 646.81640625 812.31640625 C643.66214808 809.72212734 640.5479702 807.08393735 637.4375 804.4375 C633.66911061 801.23260809 629.87753972 798.07312306 626 795 C621.54746299 791.47116597 617.21314021 787.81770671 612.88671875 784.13671875 C609.45428391 781.21995487 605.99407185 778.34306574 602.5 775.5 C597.8954642 771.75212202 593.35980809 767.93016556 588.8359375 764.0859375 C584.53986956 760.44140593 580.18631659 756.8721266 575.81640625 753.31640625 C572.66214808 750.72212734 569.5479702 748.08393735 566.4375 745.4375 C562.66911061 742.23260809 558.87753972 739.07312306 555 736 C550.54746299 732.47116597 546.21314021 728.81770671 541.88671875 725.13671875 C538.45428391 722.21995487 534.99407185 719.34306574 531.5 716.5 C526.8954642 712.75212202 522.35980809 708.93016556 517.8359375 705.0859375 C513.53986956 701.44140593 509.18631659 697.8721266 504.81640625 694.31640625 C501.66214808 691.72212734 498.5479702 689.08393735 495.4375 686.4375 C491.66911061 683.23260809 487.87753972 680.07312306 484 677 C479.54746299 673.47116597 475.21314021 669.81770671 470.88671875 666.13671875 C467.45428391 663.21995487 463.99407185 660.34306574 460.5 657.5 C455.8954642 653.75212202 451.35980809 649.93016556 446.8359375 646.0859375 C442.53986956 642.44140593 438.18631659 638.8721266 433.81640625 635.31640625 C430.66214808 632.72212734 427.5479702 630.08393735 424.4375 627.4375 C420.66911061 624.23260809 416.87753972 621.07312306 413 618 C408.54746299 614.47116597 404.21314021 610.81770671 399.88671875 607.13671875 C396.45428391 604.21995487 392.99407185 601.34306574 389.5 598.5 C385.46016457 595.21176186 381.46919573 591.87265239 377.5 588.5 C372.7308879 584.44987401 367.92087568 580.45647887 363.0703125 576.50390625 C353.49138111 568.69208052 343.94770048 560.84027163 334.53173828 552.83251953 C330.33671818 549.26971596 326.08085722 545.78674425 321.8125 542.3125 C318.11985636 539.27632634 314.47878212 536.1815003 310.8359375 533.0859375 C306.53986956 529.44140593 302.18631659 525.8721266 297.81640625 522.31640625 C294.66214808 519.72212734 291.5479702 517.08393735 288.4375 514.4375 C283.8927139 510.57230809 279.28471291 506.80764398 274.60546875 503.10546875 C270.91725734 500.12504004 267.31591577 497.04418244 263.72851562 493.94335938 C259.96876655 490.72274413 256.05979466 487.83419627 252 485 C249.14153993 487.82902876 246.28905016 490.66400779 243.4375 493.5 C242.63763672 494.29148437 241.83777344 495.08296875 241.01367188 495.8984375 C237.39105869 499.50626451 233.83487299 503.1195255 230.50390625 507 C225.66931264 512.62621887 220.3105449 517.7338555 215.02734375 522.93359375 C211.39660828 526.52936227 207.82942643 530.12146956 204.5 534 C199.66867614 539.62812757 194.31002622 544.73436598 189.02734375 549.93359375 C184.7652762 554.1546141 180.69341441 558.43968391 176.78710938 562.99023438 C172.64943836 567.6434185 168.10991768 571.92548362 163.671875 576.2890625 C160.16907073 579.75612387 156.74236279 583.22804602 153.53125 586.96875 C148.68703971 592.60544631 143.32068928 597.72387138 138.02734375 602.93359375 C134.39660828 606.52936227 130.82942643 610.12146956 127.5 614 C122.66867614 619.62812757 117.31002622 624.73436598 112.02734375 629.93359375 C108.39660828 633.52936227 104.82942643 637.12146956 101.5 641 C96.66867614 646.62812757 91.31002622 651.73436598 86.02734375 656.93359375 C82.39660828 660.52936227 78.82942643 664.12146956 75.5 668 C70.66867614 673.62812757 65.31002622 678.73436598 60.02734375 683.93359375 C56.39660828 687.52936227 52.82942643 691.12146956 49.5 695 C44.66867614 700.62812757 39.31002622 705.73436598 34.02734375 710.93359375 C30.39660828 714.52936227 26.82942643 718.12146956 23.5 722 C18.66867614 727.62812757 13.31002622 732.73436598 8.02734375 737.93359375 C4.39660828 741.52936227 0.82942643 745.12146956 -2.5 749 C-7.33132386 754.62812757 -12.68997378 759.73436598 -17.97265625 764.93359375 C-21.60339172 768.52936227 -25.17057357 772.12146956 -28.5 776 C-33.33132386 781.62812757 -38.68997378 786.73436598 -43.97265625 791.93359375 C-48.2347238 796.1546141 -52.30658559 800.43968391 -56.21289062 804.99023438 C-60.35056164 809.6434185 -64.89008232 813.92548362 -69.328125 818.2890625 C-72.83092927 821.75612387 -76.25763721 825.22804602 -79.46875 828.96875 C-84.31296029 834.60544631 -89.67931072 839.72387138 -94.97265625 844.93359375 C-98.60339172 848.52936227 -102.17057357 852.12146956 -105.5 856 C-110.33132386 861.62812757 -115.68997378 866.73436598 -120.97265625 871.93359375 C-124.60339172 875.52936227 -128.17057357 879.12146956 -131.5 883 C-136.33132386 888.62812757 -141.68997378 893.73436598 -146.97265625 898.93359375 C-150.60339172 902.52936227 -154.17057357 906.12146956 -157.5 910 C-162.33132386 915.62812757 -167.68997378 920.73436598 -172.97265625 925.93359375 C-176.60339172 929.52936227 -180.17057357 933.12146956 -183.5 937 C-188.33132386 942.62812757 -193.68997378 947.73436598 -198.97265625 952.93359375 C-202.59689071 956.52292386 -206.15838156 960.10768974 -209.48046875 963.98046875 C-213.6621867 968.85285718 -218.23989194 973.31018569 -222.8125 977.8125 C-224.50882246 979.48333301 -226.20293873 981.1564097 -227.89453125 982.83203125 C-228.63550049 983.56139893 -229.37646973 984.2907666 -230.13989258 985.04223633 C-233.2912607 988.35905231 -234.24998667 990.36260248 -234.25480902 994.84819192 C-234.26073703 995.855459 -234.26666503 996.86272609 -234.27277267 997.90051642 C-234.26912299 999.0124685 -234.26547331 1000.12442057 -234.26171303 1001.27006817 C-234.26770712 1003.04298772 -234.26770712 1003.04298772 -234.27382231 1004.85172382 C-234.28294457 1008.15267748 -234.28304987 1011.453415 -234.27947159 1014.75436516 C-234.27777162 1018.33780467 -234.28761326 1021.92121486 -234.29602563 1025.50464231 C-234.30917888 1031.79165079 -234.31488527 1038.07863232 -234.31578636 1044.36565399 C-234.31715966 1053.71428983 -234.32992662 1063.06288552 -234.3450741 1072.41150795 C-234.3702268 1088.1356492 -234.38607084 1103.85978707 -234.39665604 1119.58394432 C-234.4071708 1135.15852778 -234.42179448 1150.7330984 -234.44193649 1166.3076725 C-234.44318536 1167.27513633 -234.44443423 1168.24260017 -234.44572094 1169.23938109 C-234.45208447 1174.15240564 -234.4585217 1179.06543009 -234.46498732 1183.97845451 C-234.51068077 1218.80032691 -234.54711522 1253.62220348 -234.578125 1288.4440918 C-234.60827646 1322.2784079 -234.64260917 1356.11271553 -234.68261719 1389.94702148 C-234.68384819 1390.98947793 -234.68507919 1392.03193438 -234.6863475 1393.10598042 C-234.69871409 1403.5745148 -234.71116583 1414.04304907 -234.72367998 1424.51158328 C-234.74917205 1445.83823207 -234.77409561 1467.16488151 -234.79867554 1488.49153137 C-234.79980645 1489.47215077 -234.80093736 1490.45277017 -234.80210253 1491.46310531 C-234.87759005 1556.97539368 -234.939824 1622.48769599 -235 1688 C-234.19000514 1688.00331652 -233.38001027 1688.00663304 -232.54547011 1688.01005005 C-144.22656782 1688.37169775 -55.90766941 1688.73428705 32.41120911 1689.10169983 C33.74693715 1689.10725629 35.08266518 1689.11281275 36.41839322 1689.1183692 C64.46688402 1689.23505065 92.51537418 1689.35188576 120.56386361 1689.46889797 C134.65735583 1689.52769279 148.75084817 1689.58645814 162.84434063 1689.64519561 C164.97004971 1689.6540551 167.09575879 1689.66291543 169.22146788 1689.6717758 C201.88394881 1689.80791196 234.54643219 1689.9434231 267.20892334 1690.0770874 C267.90910117 1690.07995274 268.60927901 1690.08281808 269.33067435 1690.08577025 C280.6167846 1690.1319526 291.90289507 1690.1780816 303.18900557 1690.22420351 C335.76888572 1690.35734552 368.34876399 1690.4908938 400.92863178 1690.62703037 C401.60120751 1690.62984057 402.27378324 1690.63265077 402.96674005 1690.63554613 C417.08118225 1690.69452674 431.19562374 1690.75367591 445.31006437 1690.81302941 C451.92426739 1690.84084207 458.53847052 1690.86862689 465.15267372 1690.89639473 C467.1050456 1690.9045925 467.1050456 1690.9045925 469.09685933 1690.91295588 C489.92422429 1691.00033618 510.75159888 1691.08516227 531.57897838 1691.16899734 C552.59289712 1691.25363909 573.60680293 1691.34105691 594.62069889 1691.43117779 C607.05652528 1691.48442965 619.49235582 1691.53568415 631.92820297 1691.58385014 C640.29545207 1691.61647017 648.6626864 1691.65192868 657.02991496 1691.68944639 C662.52286657 1691.71399026 668.01581465 1691.73659801 673.50879064 1691.75495882 C705.68192798 1691.87953937 737.82491745 1692.47253963 770 1693 C770 1745.47 770 1797.94 770 1852 C377.96 1852 -14.08 1852 -418 1852 C-418.350625 1698.22 -418.70125 1544.44 -419.0625 1386 C-419.2946521 1313.07644531 -419.2946521 1313.07644531 -419.53149414 1238.6796875 C-419.60827637 1179.46484375 -419.60827637 1179.46484375 -419.62254333 1151.77294922 C-419.63947437 1131.08901977 -419.71285808 1110.40603171 -419.81344827 1089.72236668 C-419.91461732 1068.63494479 -419.95223056 1047.54811818 -419.92856416 1026.46046269 C-419.9163593 1013.91919083 -419.95024333 1001.38013243 -420.05372912 988.83926989 C-420.11743679 980.55752647 -420.11942363 972.27725426 -420.07120078 963.99540983 C-420.04549368 959.27785064 -420.04654672 954.56453884 -420.12300384 949.847435 C-420.59555122 918.92081361 -420.59555122 918.92081361 -412.06731826 910.04772294 C-409.20213562 907.56146871 -406.24455289 905.40677401 -403.04353052 903.3751204 C-399.95473309 901.2966252 -397.58682162 898.78678775 -395.02734375 896.08984375 C-394.17076172 895.22552734 -393.31417969 894.36121094 -392.43164062 893.47070312 C-391.60857422 892.63474609 -390.78550781 891.79878906 -389.9375 890.9375 C-380.51325379 881.37164228 -380.51325379 881.37164228 -376.09765625 877.59765625 C-370.59728243 872.88078395 -365.58512409 867.65421992 -360.5 862.5 C-349.46210692 851.31212584 -349.46210692 851.31212584 -345.03125 847.53125 C-339.36901187 842.69366604 -334.22820892 837.295982 -329 832 C-323.18592585 826.11055822 -317.40963243 820.26276486 -311.109375 814.88671875 C-306.19326172 810.48952854 -301.63255271 805.69260432 -297 801 C-291.18592585 795.11055822 -285.40963243 789.26276486 -279.109375 783.88671875 C-274.19326172 779.48952854 -269.63255271 774.69260432 -265 770 C-259.18592585 764.11055822 -253.40963243 758.26276486 -247.109375 752.88671875 C-242.19326172 748.48952854 -237.63255271 743.69260432 -233 739 C-227.17578649 733.10028743 -221.38944286 727.24095279 -215.078125 721.85546875 C-210.34434772 717.6288819 -205.95574442 713.01628834 -201.5 708.5 C-190.46210692 697.31212584 -190.46210692 697.31212584 -186.03125 693.53125 C-180.36901187 688.69366604 -175.22820892 683.295982 -170 678 C-164.18592585 672.11055822 -158.40963243 666.26276486 -152.109375 660.88671875 C-147.19326172 656.48952854 -142.63255271 651.69260432 -138 647 C-132.18592585 641.11055822 -126.40963243 635.26276486 -120.109375 629.88671875 C-115.19326172 625.48952854 -110.63255271 620.69260432 -106 616 C-100.18592585 610.11055822 -94.40963243 604.26276486 -88.109375 598.88671875 C-83.19326172 594.48952854 -78.63255271 589.69260432 -74 585 C-68.18592585 579.11055822 -62.40963243 573.26276486 -56.109375 567.88671875 C-51.19326172 563.48952854 -46.63255271 558.69260432 -42 554 C-36.17578649 548.10028743 -30.38944286 542.24095279 -24.078125 536.85546875 C-19.34434772 532.6288819 -14.95574442 528.01628834 -10.5 523.5 C0.53789308 512.31212584 0.53789308 512.31212584 4.96875 508.53125 C10.63098813 503.69366604 15.77179108 498.295982 21 493 C26.81407415 487.11055822 32.59036757 481.26276486 38.890625 475.88671875 C43.80673828 471.48952854 48.36744729 466.69260432 53 462 C58.81407415 456.11055822 64.59036757 450.26276486 70.890625 444.88671875 C75.80673828 440.48952854 80.36744729 435.69260432 85 431 C90.81407415 425.11055822 96.59036757 419.26276486 102.890625 413.88671875 C107.80673828 409.48952854 112.36744729 404.69260432 117 400 C122.82421351 394.10028743 128.61055714 388.24095279 134.921875 382.85546875 C139.65565228 378.6288819 144.04425558 374.01628834 148.5 369.5 C159.53789308 358.31212584 159.53789308 358.31212584 163.96875 354.53125 C169.63098813 349.69366604 174.77179108 344.295982 180 339 C185.81407415 333.11055822 191.59036757 327.26276486 197.890625 321.88671875 C202.80673828 317.48952854 207.36744729 312.69260432 212 308 C223.56991617 296.28010343 223.56991617 296.28010343 227.99609375 292.5078125 C231.42642817 289.58170445 234.61629068 286.44591304 237.78515625 283.2421875 C238.55005875 282.46902191 238.55005875 282.46902191 239.33041382 281.68023682 C241.44343767 279.53959741 243.5527766 277.39541254 245.6574707 275.24658203 C247.21633881 273.65725135 248.78159022 272.07442177 250.34765625 270.4921875 C251.26554932 269.55745605 252.18344238 268.62272461 253.12915039 267.65966797 C256 265 256 265 263 260 C263.33 328.31 263.66 396.62 264 467 C264.99 467 265.98 467 267 467 C269.2421875 468.58203125 269.2421875 468.58203125 271.875 470.8125 C272.85082031 471.63234375 273.82664062 472.4521875 274.83203125 473.296875 C275.88846382 474.19739724 276.94444277 475.09845188 278 476 C279.6354465 477.3878902 281.27206508 478.77439009 282.90869141 480.16088867 C284.01715198 481.10031474 285.12489243 482.04059114 286.23193359 482.98168945 C289.4468142 485.70904814 292.69551474 488.38104815 296 491 C300.45253701 494.52883403 304.78685979 498.18229329 309.11328125 501.86328125 C312.54571609 504.78004513 316.00592815 507.65693426 319.5 510.5 C324.1045358 514.24787798 328.64019191 518.06983444 333.1640625 521.9140625 C337.46013044 525.55859407 341.81368341 529.1278734 346.18359375 532.68359375 C349.33785192 535.27787266 352.4520298 537.91606265 355.5625 540.5625 C359.33088939 543.76739191 363.12246028 546.92687694 367 550 C371.45253701 553.52883403 375.78685979 557.18229329 380.11328125 560.86328125 C383.54571609 563.78004513 387.00592815 566.65693426 390.5 569.5 C395.1045358 573.24787798 399.64019191 577.06983444 404.1640625 580.9140625 C408.46013044 584.55859407 412.81368341 588.1278734 417.18359375 591.68359375 C420.33785192 594.27787266 423.4520298 596.91606265 426.5625 599.5625 C430.33088939 602.76739191 434.12246028 605.92687694 438 609 C442.45253701 612.52883403 446.78685979 616.18229329 451.11328125 619.86328125 C454.54571609 622.78004513 458.00592815 625.65693426 461.5 628.5 C466.1045358 632.24787798 470.64019191 636.06983444 475.1640625 639.9140625 C479.46013044 643.55859407 483.81368341 647.1278734 488.18359375 650.68359375 C491.33785192 653.27787266 494.4520298 655.91606265 497.5625 658.5625 C501.33088939 661.76739191 505.12246028 664.92687694 509 668 C513.45253701 671.52883403 517.78685979 675.18229329 522.11328125 678.86328125 C525.54571609 681.78004513 529.00592815 684.65693426 532.5 687.5 C537.1045358 691.24787798 541.64019191 695.06983444 546.1640625 698.9140625 C550.46013044 702.55859407 554.81368341 706.1278734 559.18359375 709.68359375 C562.33785192 712.27787266 565.4520298 714.91606265 568.5625 717.5625 C572.33088939 720.76739191 576.12246028 723.92687694 580 727 C584.45253701 730.52883403 588.78685979 734.18229329 593.11328125 737.86328125 C596.54571609 740.78004513 600.00592815 743.65693426 603.5 746.5 C608.1045358 750.24787798 612.64019191 754.06983444 617.1640625 757.9140625 C621.46013044 761.55859407 625.81368341 765.1278734 630.18359375 768.68359375 C633.33785192 771.27787266 636.4520298 773.91606265 639.5625 776.5625 C643.33088939 779.76739191 647.12246028 782.92687694 651 786 C655.45253701 789.52883403 659.78685979 793.18229329 664.11328125 796.86328125 C667.54571609 799.78004513 671.00592815 802.65693426 674.5 805.5 C679.1045358 809.24787798 683.64019191 813.06983444 688.1640625 816.9140625 C692.46013044 820.55859407 696.81368341 824.1278734 701.18359375 827.68359375 C704.33785192 830.27787266 707.4520298 832.91606265 710.5625 835.5625 C714.33088939 838.76739191 718.12246028 841.92687694 722 845 C726.45253701 848.52883403 730.78685979 852.18229329 735.11328125 855.86328125 C738.54571609 858.78004513 742.00592815 861.65693426 745.5 864.5 C750.1045358 868.24787798 754.64019191 872.06983444 759.1640625 875.9140625 C763.46013044 879.55859407 767.81368341 883.1278734 772.18359375 886.68359375 C775.33785192 889.27787266 778.4520298 891.91606265 781.5625 894.5625 C785.33088939 897.76739191 789.12246028 900.92687694 793 904 C797.45253701 907.52883403 801.78685979 911.18229329 806.11328125 914.86328125 C809.54571609 917.78004513 813.00592815 920.65693426 816.5 923.5 C821.1045358 927.24787798 825.64019191 931.06983444 830.1640625 934.9140625 C834.46013044 938.55859407 838.81368341 942.1278734 843.18359375 945.68359375 C846.33785192 948.27787266 849.4520298 950.91606265 852.5625 953.5625 C857.11145416 957.43123672 861.72507098 961.1977835 866.40625 964.90625 C870.51513795 968.22306317 874.51923215 971.66078627 878.53125 975.09375 C881.38373429 977.51081037 884.29487101 979.84911099 887.21679688 982.18164062 C888.11362183 982.89791626 889.01044678 983.61419189 889.93444824 984.35217285 C890.95689636 985.16784729 890.95689636 985.16784729 892 986 C892.35096482 962.3648462 892.61518651 938.73008485 892.77718258 915.09284687 C892.85441284 904.11659262 892.95962849 893.14196067 893.1315918 882.16674805 C893.28146895 872.59654776 893.37795765 863.02752255 893.41132742 853.45618123 C893.43082533 848.39108843 893.47637195 843.32935599 893.58595085 838.26534462 C893.68844602 833.48961176 893.71904966 828.71859232 893.69661522 823.94186401 C893.70071312 822.19743822 893.73017601 820.45284082 893.78808212 818.70937157 C894.18300743 809.35422947 894.18300743 809.35422947 890.51694226 801.02094245 C886.9485217 797.27709132 882.96402348 794.19057362 878.73461354 791.2317003 C876.56513987 789.69121805 874.58276602 787.98115483 872.60546875 786.203125 C872.02829102 785.70458008 871.45111328 785.20603516 870.85644531 784.69238281 C866.11062288 780.5908148 861.38973109 776.4719354 856.75 772.25 C853.43560714 769.24239392 850.04340917 766.37570304 846.5625 763.5625 C841.78715598 759.70058325 837.26332315 755.62325776 832.74609375 751.46484375 C830.08124834 749.07292703 827.35168175 746.80745116 824.5625 744.5625 C820.02683557 740.90428985 815.7429883 737.05257035 811.48071289 733.08618164 C808.24806025 730.09573 804.93303234 727.26220993 801.5 724.5 C796.98222187 720.86500611 792.72181484 717.0328971 788.48046875 713.0859375 C785.24788253 710.09558642 781.93294134 707.26213671 778.5 704.5 C773.98222187 700.86500611 769.72181484 697.0328971 765.48046875 693.0859375 C762.24788253 690.09558642 758.93294134 687.26213671 755.5 684.5 C751.52370574 681.30068278 747.73331702 677.97415055 744 674.5 C739.38998361 670.2104224 734.62216764 666.19589103 729.71484375 662.24609375 C725.93432714 659.11832821 722.35519125 655.78726117 718.74609375 652.46484375 C716.08124834 650.07292703 713.35168175 647.80745116 710.5625 645.5625 C706.02683557 641.90428985 701.7429883 638.05257035 697.48071289 634.08618164 C694.24806025 631.09573 690.93303234 628.26220993 687.5 625.5 C682.98222187 621.86500611 678.72181484 618.0328971 674.48046875 614.0859375 C671.24788253 611.09558642 667.93294134 608.26213671 664.5 605.5 C659.98222187 601.86500611 655.72181484 598.0328971 651.48046875 594.0859375 C648.24788253 591.09558642 644.93294134 588.26213671 641.5 585.5 C637.52370574 582.30068278 633.73331702 578.97415055 630 575.5 C625.38998361 571.2104224 620.62216764 567.19589103 615.71484375 563.24609375 C611.93432714 560.11832821 608.35519125 556.78726117 604.74609375 553.46484375 C602.08124834 551.07292703 599.35168175 548.80745116 596.5625 546.5625 C592.02683557 542.90428985 587.7429883 539.05257035 583.48071289 535.08618164 C580.24806025 532.09573 576.93303234 529.26220993 573.5 526.5 C568.98222187 522.86500611 564.72181484 519.0328971 560.48046875 515.0859375 C557.24788253 512.09558642 553.93294134 509.26213671 550.5 506.5 C545.98222187 502.86500611 541.72181484 499.0328971 537.48046875 495.0859375 C534.24788253 492.09558642 530.93294134 489.26213671 527.5 486.5 C523.52370574 483.30068278 519.73331702 479.97415055 516 476.5 C511.38998361 472.2104224 506.62216764 468.19589103 501.71484375 464.24609375 C497.93432714 461.11832821 494.35519125 457.78726117 490.74609375 454.46484375 C488.08124834 452.07292703 485.35168175 449.80745116 482.5625 447.5625 C478.02683557 443.90428985 473.7429883 440.05257035 469.48071289 436.08618164 C466.24806025 433.09573 462.93303234 430.26220993 459.5 427.5 C454.98222187 423.86500611 450.72181484 420.0328971 446.48046875 416.0859375 C443.24788253 413.09558642 439.93294134 410.26213671 436.5 407.5 C431.98222187 403.86500611 427.72181484 400.0328971 423.48046875 396.0859375 C420.24788253 393.09558642 416.93294134 390.26213671 413.5 387.5 C409.52370574 384.30068278 405.73331702 380.97415055 402 377.5 C397.38998361 373.2104224 392.62216764 369.19589103 387.71484375 365.24609375 C383.93432714 362.11832821 380.35519125 358.78726117 376.74609375 355.46484375 C374.08124834 353.07292703 371.35168175 350.80745116 368.5625 348.5625 C364.02683557 344.90428985 359.7429883 341.05257035 355.48071289 337.08618164 C352.24806025 334.09573 348.93303234 331.26220993 345.5 328.5 C340.98222187 324.86500611 336.72181484 321.0328971 332.48046875 317.0859375 C329.24788253 314.09558642 325.93294134 311.26213671 322.5 308.5 C317.98222187 304.86500611 313.72181484 301.0328971 309.48046875 297.0859375 C306.24788253 294.09558642 302.93294134 291.26213671 299.5 288.5 C295.52370574 285.30068278 291.73331702 281.97415055 288 278.5 C283.38998361 274.2104224 278.62216764 270.19589103 273.71484375 266.24609375 C269.93432714 263.11832821 266.35519125 259.78726117 262.74609375 256.46484375 C260.08124834 254.07292703 257.35168175 251.80745116 254.5625 249.5625 C250.02683557 245.90428985 245.7429883 242.05257035 241.48071289 238.08618164 C238.24806025 235.09573 234.93303234 232.26220993 231.5 229.5 C226.98222187 225.86500611 222.72181484 222.0328971 218.48046875 218.0859375 C215.24788253 215.09558642 211.93294134 212.26213671 208.5 209.5 C204.52369231 206.30067197 200.73342832 202.97404571 197 199.5 C192.2886469 195.11851798 187.43666299 190.97433039 182.41015625 186.953125 C180.39262779 185.31817487 178.47949099 183.62383389 176.5625 181.875 C174.27267735 179.77829721 174.27267735 179.77829721 172.10546875 180.125 C169.31464638 181.28482228 167.81961177 182.92882923 165.75 185.125 C162.36617526 188.69407062 158.81931979 191.93792126 155.10546875 195.15283203 C151.69855385 198.14178357 148.41692855 201.26064268 145.125 204.375 C139.96269539 209.23745426 134.76652854 214.04962167 129.4765625 218.7734375 C124.83211902 222.94904126 120.26096117 227.20472003 115.67773438 231.44726562 C106.31709736 240.11048614 96.92780911 248.74199919 87.52050781 257.35449219 C81.28637461 263.06260755 75.0639464 268.7830084 68.85571289 274.51928711 C64.75321792 278.30851177 60.63855333 282.0842269 56.51953125 285.85546875 C52.83790943 289.22787299 49.16703046 292.61174008 45.5 296 C38.85739742 302.13702617 32.19088341 308.24768628 25.52050781 314.35449219 C19.28637461 320.06260755 13.0639464 325.7830084 6.85571289 331.51928711 C2.75321792 335.30851177 -1.36144667 339.0842269 -5.48046875 342.85546875 C-9.16209057 346.22787299 -12.83296954 349.61174008 -16.5 353 C-23.14260258 359.13702617 -29.80911659 365.24768628 -36.47949219 371.35449219 C-42.16322346 376.55864692 -47.83959185 381.77047632 -53.5 387 C-60.14264017 393.13698573 -66.80911637 399.24768607 -73.47949219 405.35449219 C-79.71362539 411.06260755 -85.9360536 416.7830084 -92.14428711 422.51928711 C-96.24678208 426.30851177 -100.36144667 430.0842269 -104.48046875 433.85546875 C-108.16209057 437.22787299 -111.83296954 440.61174008 -115.5 444 C-122.14260258 450.13702617 -128.80911659 456.24768628 -135.47949219 462.35449219 C-141.16322346 467.55864692 -146.83959185 472.77047632 -152.5 478 C-159.14264017 484.13698573 -165.80911637 490.24768607 -172.47949219 496.35449219 C-178.71362539 502.06260755 -184.9360536 507.7830084 -191.14428711 513.51928711 C-195.24678208 517.30851177 -199.36144667 521.0842269 -203.48046875 524.85546875 C-207.16209057 528.22787299 -210.83296954 531.61174008 -214.5 535 C-221.14260258 541.13702617 -227.80911659 547.24768628 -234.47949219 553.35449219 C-240.71362539 559.06260755 -246.9360536 564.7830084 -253.14428711 570.51928711 C-257.24678208 574.30851177 -261.36144667 578.0842269 -265.48046875 581.85546875 C-269.16209057 585.22787299 -272.83296954 588.61174008 -276.5 592 C-283.14260258 598.13702617 -289.80911659 604.24768628 -296.47949219 610.35449219 C-302.16322346 615.55864692 -307.83959185 620.77047632 -313.5 626 C-320.14264017 632.13698573 -326.80911637 638.24768607 -333.47949219 644.35449219 C-339.71362539 650.06260755 -345.9360536 655.7830084 -352.14428711 661.51928711 C-356.24678208 665.30851177 -360.36144667 669.0842269 -364.48046875 672.85546875 C-368.16209057 676.22787299 -371.83296954 679.61174008 -375.5 683 C-382.14260258 689.13702617 -388.80911659 695.24768628 -395.47949219 701.35449219 C-401.16322346 706.55864692 -406.83959185 711.77047632 -412.5 717 C-419.14264017 723.13698573 -425.80911637 729.24768607 -432.47949219 735.35449219 C-438.71362539 741.06260755 -444.9360536 746.7830084 -451.14428711 752.51928711 C-455.24678208 756.30851177 -459.36144667 760.0842269 -463.48046875 763.85546875 C-467.16209057 767.22787299 -470.83296954 770.61174008 -474.5 774 C-481.14260258 780.13702617 -487.80911659 786.24768628 -494.47949219 792.35449219 C-500.71362539 798.06260755 -506.9360536 803.7830084 -513.14428711 809.51928711 C-517.24678208 813.30851177 -521.36144667 817.0842269 -525.48046875 820.85546875 C-533.29963476 827.97620467 -533.29963476 827.97620467 -541.00155641 835.2217489 C-543 837 -543 837 -545.9234923 839.1292599 C-550.69358551 842.74600518 -554.36270254 845.86867239 -556.11547545 851.73050853 C-556.68163362 856.17411952 -556.57931494 860.61071147 -556.49219131 865.08021832 C-556.50278775 866.81107258 -556.51864749 868.54190113 -556.53926383 870.27266504 C-556.58068081 875.02665839 -556.54753443 879.77763963 -556.50213096 884.53148834 C-556.46606691 889.69169154 -556.4996731 894.85151437 -556.52449036 900.01171875 C-556.55839133 909.06409317 -556.54763204 918.11556621 -556.5078969 927.16790426 C-556.44828637 940.80303656 -556.45860749 954.43752703 -556.48216143 968.07273783 C-556.519746 990.92255595 -556.50304701 1013.77190305 -556.45306396 1036.62165833 C-556.38568901 1067.5176566 -556.39330307 1098.41301663 -556.41357422 1129.3092041 C-556.4243653 1203.60198863 -556.33076129 1277.89475859 -556.25 1352.1875 C-556.1675 1518.115625 -556.085 1684.04375 -556 1855 C-72.88 1855 410.24 1855 908 1855 C908 1867.21 908 1879.42 908 1892 C406.73 1892 -94.54 1892 -611 1892 C-611 1879.79 -611 1867.58 -611 1855 C-600.11 1855 -589.22 1855 -578 1855 C-578.33 1529.95 -578.66 1204.9 -579 870 C-583.29 873.96 -587.58 877.92 -592 882 C-598 887.5 -598 887.5 -600.96875 890.21875 C-604.15321931 893.13784686 -607.32713416 896.06830211 -610.5 899 C-615.14988581 903.29645031 -619.81103067 907.58028402 -624.48046875 911.85546875 C-628.16209057 915.22787299 -631.83296954 918.61174008 -635.5 922 C-642.14260258 928.13702617 -648.80911659 934.24768628 -655.47949219 940.35449219 C-660.61396114 945.05572975 -665.74517005 949.7603141 -670.85888672 954.48413086 C-671.94993461 955.49191372 -673.04140381 956.49924067 -674.13330078 957.50610352 C-676.83138105 959.9942432 -679.52422625 962.48757922 -682.20703125 964.9921875 C-687.5926102 970.00158024 -693.00214347 974.73229439 -699 979 C-700.77399627 977.25311063 -702.54422553 975.50266549 -704.3125 973.75 C-704.81201172 973.25886719 -705.31152344 972.76773438 -705.82617188 972.26171875 C-711.11986389 967.0030843 -711.11986389 967.0030843 -713 964 C-713 961 -713 961 -711.52685547 959.43505859 C-710.51969482 958.61255615 -710.51969482 958.61255615 -709.4921875 957.7734375 C-706.61509655 955.36214922 -703.80127704 952.92781383 -701.0703125 950.3515625 C-700.42553955 949.74352783 -699.7807666 949.13549316 -699.11645508 948.5090332 C-698.4592749 947.88730225 -697.80209473 947.26557129 -697.125 946.625 C-691.96269539 941.76254574 -686.76652854 936.95037833 -681.4765625 932.2265625 C-676.83211902 928.05095874 -672.26096117 923.79527997 -667.67773438 919.55273438 C-658.31709736 910.88951386 -648.92780911 902.25800081 -639.52050781 893.64550781 C-633.28637461 887.93739245 -627.0639464 882.2169916 -620.85571289 876.48071289 C-616.75321792 872.69148823 -612.63855333 868.9157731 -608.51953125 865.14453125 C-600.68531437 858.02992315 -600.68531437 858.02992315 -592.99859238 850.75941181 C-591 849 -591 849 -588.07516861 847.04029369 C-582.91450688 843.21529405 -579.01968424 839.96268601 -577.89116669 833.40369606 C-577.32681278 827.64024247 -577.44824577 821.87971897 -577.54589844 816.09692383 C-577.53941387 813.87855976 -577.52765123 811.66020582 -577.5110321 809.44189453 C-577.48095591 803.44385984 -577.5243872 797.4483757 -577.58134365 791.45062089 C-577.62834278 785.17388276 -577.60729631 778.89737531 -577.59356689 772.62052917 C-577.57966117 762.09331905 -577.60743741 751.56680948 -577.66748047 741.03979492 C-577.72918203 730.20183213 -577.76552495 719.36426814 -577.76806641 708.52612305 C-577.76823209 707.856939 -577.76839778 707.18775495 -577.76856849 706.4982926 C-577.76924433 703.14085351 -577.76942482 699.7834146 -577.76935911 696.42597544 C-577.77056109 668.61689729 -577.85949056 640.80869314 -578 613 C-570.74 613 -563.48 613 -556 613 C-555.67 679.99 -555.34 746.98 -555 816 C-546.65328119 808.29602176 -546.65328119 808.29602176 -538.30859375 800.58984375 C-530.73029867 793.58894258 -523.13019031 786.61226004 -515.52050781 779.64550781 C-509.83677654 774.44135308 -504.16040815 769.22952368 -498.5 764 C-491.85735983 757.86301427 -485.19088363 751.75231393 -478.52050781 745.64550781 C-472.28637461 739.93739245 -466.0639464 734.2169916 -459.85571289 728.48071289 C-455.75321792 724.69148823 -451.63855333 720.9157731 -447.51953125 717.14453125 C-443.83790943 713.77212701 -440.16703046 710.38825992 -436.5 707 C-429.85739742 700.86297383 -423.19088341 694.75231372 -416.52050781 688.64550781 C-410.83677654 683.44135308 -405.16040815 678.22952368 -399.5 673 C-392.85735983 666.86301427 -386.19088363 660.75231393 -379.52050781 654.64550781 C-373.28637461 648.93739245 -367.0639464 643.2169916 -360.85571289 637.48071289 C-356.75321792 633.69148823 -352.63855333 629.9157731 -348.51953125 626.14453125 C-344.83790943 622.77212701 -341.16703046 619.38825992 -337.5 616 C-330.85739742 609.86297383 -324.19088341 603.75231372 -317.52050781 597.64550781 C-311.28637461 591.93739245 -305.0639464 586.2169916 -298.85571289 580.48071289 C-294.75321792 576.69148823 -290.63855333 572.9157731 -286.51953125 569.14453125 C-282.83790943 565.77212701 -279.16703046 562.38825992 -275.5 559 C-268.85739742 552.86297383 -262.19088341 546.75231372 -255.52050781 540.64550781 C-249.83677654 535.44135308 -244.16040815 530.22952368 -238.5 525 C-231.85735983 518.86301427 -225.19088363 512.75231393 -218.52050781 506.64550781 C-212.28637461 500.93739245 -206.0639464 495.2169916 -199.85571289 489.48071289 C-195.75321792 485.69148823 -191.63855333 481.9157731 -187.51953125 478.14453125 C-183.83790943 474.77212701 -180.16703046 471.38825992 -176.5 468 C-169.85739742 461.86297383 -163.19088341 455.75231372 -156.52050781 449.64550781 C-150.83677654 444.44135308 -145.16040815 439.22952368 -139.5 434 C-132.85735983 427.86301427 -126.19088363 421.75231393 -119.52050781 415.64550781 C-113.28637461 409.93739245 -107.0639464 404.2169916 -100.85571289 398.48071289 C-96.75321792 394.69148823 -92.63855333 390.9157731 -88.51953125 387.14453125 C-84.83790943 383.77212701 -81.16703046 380.38825992 -77.5 377 C-70.85739742 370.86297383 -64.19088341 364.75231372 -57.52050781 358.64550781 C-51.28637461 352.93739245 -45.0639464 347.2169916 -38.85571289 341.48071289 C-34.75321792 337.69148823 -30.63855333 333.9157731 -26.51953125 330.14453125 C-22.83790943 326.77212701 -19.16703046 323.38825992 -15.5 320 C-8.85739742 313.86297383 -2.19088341 307.75231372 4.47949219 301.64550781 C10.16322346 296.44135308 15.83959185 291.22952368 21.5 286 C28.14264017 279.86301427 34.80911637 273.75231393 41.47949219 267.64550781 C47.71362539 261.93739245 53.9360536 256.2169916 60.14428711 250.48071289 C64.24678208 246.69148823 68.36144667 242.9157731 72.48046875 239.14453125 C76.16209057 235.77212701 79.83296954 232.38825992 83.5 229 C90.14260258 222.86297383 96.80911659 216.75231372 103.47949219 210.64550781 C109.71362539 204.93739245 115.9360536 199.2169916 122.14428711 193.48071289 C125.75526608 190.14547161 129.37454304 186.81949354 133 183.5 C137.35972091 179.506008 141.71470958 175.50697818 146.0625 171.5 C146.61099609 170.99533203 147.15949219 170.49066406 147.72460938 169.97070312 C150.19680581 167.69034171 152.63217846 165.38824503 155 163 C154.03320312 162.16597656 153.06640625 161.33195313 152.0703125 160.47265625 C140.24010129 150.25150004 140.24010129 150.25150004 134.75 145.25 C131.43560714 142.24239392 128.04340917 139.37570304 124.5625 136.5625 C119.78715598 132.70058325 115.26332315 128.62325776 110.74609375 124.46484375 C108.08124834 122.07292703 105.35168175 119.80745116 102.5625 117.5625 C98.02683557 113.90428985 93.7429883 110.05257035 89.48071289 106.08618164 C86.24806025 103.09573 82.93303234 100.26220993 79.5 97.5 C74.98222187 93.86500611 70.72181484 90.0328971 66.48046875 86.0859375 C63.24788253 83.09558642 59.93294134 80.26213671 56.5 77.5 C51.98222187 73.86500611 47.72181484 70.0328971 43.48046875 66.0859375 C40.24788253 63.09558642 36.93294134 60.26213671 33.5 57.5 C29.52370574 54.30068278 25.73331702 50.97415055 22 47.5 C17.39477993 43.21488533 12.63190803 39.20442595 7.73046875 35.2578125 C3.87585501 32.07044949 0.20814368 28.69366227 -3.47265625 25.30859375 C-6.58789598 22.46298837 -9.77662843 19.72195822 -13 17 C-11.38071731 13.09521545 -8.80673954 10.43827444 -5.9375 7.375 C-2.58466353 3.95790247 -2.58466353 3.95790247 0 0 Z " fill="#F0582E" transform="translate(1100,296)"/>
<path d="M0 0 C0.73180655 -0.00235223 1.4636131 -0.00470446 2.21759561 -0.00712797 C4.67104191 -0.01378764 7.12443488 -0.01336067 9.57788944 -0.01294994 C11.35429196 -0.01625046 13.13069372 -0.01997643 14.90709454 -0.02409142 C19.79006025 -0.03409822 24.67301368 -0.03782609 29.55598819 -0.04048073 C34.8220728 -0.04438771 40.08814771 -0.05396579 45.35422611 -0.0626936 C58.07270812 -0.08244702 70.79119091 -0.09252286 83.50968441 -0.10142139 C89.50136386 -0.10580618 95.49304243 -0.1111725 101.48472118 -0.11641026 C121.40645603 -0.13342152 141.32819034 -0.14791521 161.24993134 -0.155159 C166.41858197 -0.15706884 171.5872326 -0.15898918 176.75588322 -0.16094494 C178.04050113 -0.16142868 179.32511905 -0.16191242 180.64866478 -0.16241082 C201.45392606 -0.17070934 222.25912981 -0.19604373 243.06436598 -0.22852562 C264.43203399 -0.2616132 285.79967279 -0.2796093 307.16736656 -0.28280324 C319.16151756 -0.28496677 331.15558466 -0.29369253 343.14971066 -0.31926441 C353.36544068 -0.34099459 363.58106643 -0.34901039 373.79681694 -0.33929763 C379.00575886 -0.33475967 384.21448573 -0.33660994 389.42339802 -0.35605907 C394.2000074 -0.37373944 398.97624565 -0.37265358 403.75285924 -0.35716178 C405.47299377 -0.3547931 407.19315433 -0.35907051 408.91324919 -0.37099043 C422.62617189 -0.46006654 435.3651592 1.28917563 447.74440861 7.69672108 C448.40311954 8.03260242 449.06183048 8.36848377 449.74050236 8.71454334 C456.71293632 12.46340894 462.09393363 17.47497155 467.55690861 23.13422108 C468.29425236 23.84062733 469.03159611 24.54703358 469.79128361 25.27484608 C474.07257067 29.62250969 477.02370602 34.37762782 479.80690861 39.75922108 C480.12434025 40.36145496 480.44177189 40.96368885 480.76882267 41.58417225 C488.18340024 56.76612407 488.12782431 71.86249913 488.05811405 88.39679432 C488.06201086 90.95897718 488.06765433 93.52115787 488.07488495 96.08333349 C488.08773206 101.63569881 488.08587194 107.18790415 488.07410526 112.74026966 C488.05665484 120.99749116 488.06224727 129.25458789 488.07227217 137.51181602 C488.08943378 152.26494332 488.0839419 167.01799612 488.06891499 181.77112185 C488.05584485 194.68708834 488.05067076 207.60302904 488.05323315 220.51900196 C488.05347377 221.80591006 488.05347377 221.80591006 488.05371925 223.1188163 C488.05438289 226.60186931 488.05508531 230.0849223 488.05584459 233.56797528 C488.06286483 266.22701431 488.04739207 298.88600798 488.02122114 331.54503546 C487.99812358 360.52204388 487.99271221 389.4990024 488.00295353 418.47601795 C488.00555581 425.89274309 488.00814092 433.30946823 488.01055145 440.72619343 C488.0108489 441.63944908 488.01114635 442.55270472 488.01145281 443.49363479 C488.01908067 467.74300601 488.01264352 491.9923732 488.00185543 516.24174261 C488.00070769 518.85357773 487.99956452 521.46541284 487.99842861 524.07724797 C487.99767336 525.80969361 487.99690771 527.54213924 487.9961316 529.27458487 C487.99048866 542.17274245 487.99179292 555.07088707 487.99635983 567.96904469 C488.00148447 582.65071568 487.99554103 597.33233847 487.97546553 612.0139975 C487.96453595 620.21654247 487.96163275 628.41899259 487.97075406 636.62154032 C487.97664003 642.76780068 487.96663964 648.91394356 487.95075441 655.06018406 C487.94674148 657.53051589 487.947656 660.00086226 487.95427328 662.47118849 C488.00177911 681.88219067 486.46964214 700.87503268 482.36940861 719.88422108 C482.16074162 720.85843006 481.95207462 721.83263905 481.73708439 722.83636951 C466.58497588 791.03708062 429.01488921 857.50974261 372.55690861 900.13422108 C371.56046329 900.92441639 370.56401798 901.7146117 369.53737736 902.52875233 C312.74818254 947.45465916 242.94384685 967.40800413 171.18190861 967.32172108 C170.25249454 967.32111683 169.32308048 967.32051258 168.36550236 967.31989002 C154.01193048 967.29459358 139.81107635 966.96352665 125.55690861 965.13422108 C124.53355412 965.00531483 123.51019962 964.87640858 122.45583439 964.74359608 C79.3787476 959.13246944 35.08166795 946.00326822 -0.44309139 920.13422108 C-1.92809139 919.05720936 -1.92809139 919.05720936 -3.44309139 917.95843983 C-55.50744833 879.50784969 -87.15604172 828.00907795 -97.05246639 763.81976795 C-100.77208983 738.24735681 -101.80404608 710.53016095 -96.44309139 685.13422108 C-96.1936578 683.93418446 -96.1936578 683.93418446 -95.93918514 682.70990467 C-91.2683667 661.10736938 -81.40377727 638.62095142 -66.44309139 622.13422108 C-65.62195858 621.22027576 -64.80082577 620.30633045 -63.95481014 619.36468983 C-48.46809242 602.98149061 -27.54325964 594.58877688 -5.21262264 593.78265858 C8.27229268 593.53144485 21.46134043 593.68581453 34.55690861 597.13422108 C35.80729923 597.46293201 37.05768986 597.79164295 38.34597111 598.13031483 C53.77596174 602.74653356 66.36558546 610.65808881 77.55690861 622.13422108 C78.29425236 622.86254139 79.03159611 623.5908617 79.79128361 624.34125233 C95.03764621 640.26720086 100.30856592 661.58435716 100.80690861 683.07172108 C100.20060457 708.13228789 92.19175405 729.90758863 81.07253361 752.10687733 C65.82379404 782.78511299 53.97770735 818.81741606 62.55690861 853.13422108 C62.55690861 848.84422108 62.55690861 844.55422108 62.55690861 840.13422108 C66.5837441 841.74495527 70.31258113 843.51205734 74.18190861 845.44672108 C80.01704696 848.24404971 85.86381835 850.298743 92.11940861 851.94672108 C93.21406437 852.23833118 93.21406437 852.23833118 94.33083439 852.53583241 C107.49071721 855.81355667 120.3945985 856.48176996 133.88601017 856.44989491 C136.65692435 856.44674944 139.42675153 856.47023066 142.19753361 856.4955492 C181.60089471 856.63589994 219.71165556 844.82158089 248.24440861 816.88422108 C282.72269445 781.98503015 290.05996477 730.73180807 289.7903986 683.79147816 C289.41596115 646.28845122 275.23462692 613.61090977 249.36940861 586.57172108 C213.47331069 551.52316991 162.9023088 545.47833976 115.04452229 545.86832142 C112.09811137 545.88985911 109.15170364 545.89962021 106.20523453 545.9096117 C84.31076745 545.98619471 62.44012461 546.39554712 40.55690861 547.13422108 C40.55690861 560.99422108 40.55690861 574.85422108 40.55690861 589.13422108 C35.54503361 587.71109608 35.54503361 587.71109608 30.43190861 586.25922108 C3.06166779 578.71878907 -22.56473583 579.13341785 -47.73606014 593.39593983 C-53.59955054 597.161096 -59.3023419 601.42107867 -63.63449764 606.91156483 C-64.23133358 607.64504139 -64.82816952 608.37851795 -65.44309139 609.13422108 C-66.10309139 609.13422108 -66.76309139 609.13422108 -67.44309139 609.13422108 C-67.44309139 471.52422108 -67.44309139 333.91422108 -67.44309139 192.13422108 C-3.18590389 192.04140858 -3.18590389 192.04140858 62.36940861 191.94672108 C75.85404972 191.91940907 89.33869083 191.89209705 103.23195744 191.86395741 C119.80434513 191.8504076 119.80434513 191.8504076 127.58307743 191.8478899 C132.97109869 191.84511519 138.35902765 191.83420934 143.74701786 191.81749439 C149.98610209 191.79816833 156.22509617 191.78976585 162.46421043 191.79388623 C165.64428496 191.7956655 168.82412256 191.79142673 172.00416815 191.77657568 C193.48904719 191.68102474 214.90136582 193.15657991 235.99440861 197.44672108 C237.05675724 197.65836903 238.11910587 197.87001698 239.21364689 198.0880785 C271.1705434 204.68041742 301.97860677 217.67157961 327.55690861 238.13422108 C327.88690861 212.06422108 328.21690861 185.99422108 328.55690861 159.13422108 C194.90690861 159.13422108 61.25690861 159.13422108 -76.44309139 159.13422108 C-76.44309139 61.52390589 -76.44309139 61.52390589 -68.44309139 45.13422108 C-68.02414608 44.22285389 -67.60520077 43.3114867 -67.17356014 42.37250233 C-63.23421908 34.41435222 -57.65075622 28.35060454 -51.44309139 22.13422108 C-50.71090389 21.39043201 -49.97871639 20.64664295 -49.22434139 19.88031483 C-36.14562705 7.41161515 -18.01949041 0.02475538 0 0 Z M40.55690861 233.13422108 C40.55690861 322.56422108 40.55690861 411.99422108 40.55690861 504.13422108 C95.82017421 505.88234687 95.82017421 505.88234687 151.55690861 499.88422108 C152.58614445 499.66806141 153.61538029 499.45190174 154.67580509 499.22919178 C187.73680625 491.98927389 215.07239402 474.70252289 233.55690861 446.13422108 C247.72012058 423.40970917 253.62437523 395.9578326 253.76003361 369.38422108 C253.76573368 368.48663074 253.77143375 367.58904041 253.77730656 366.66425037 C253.78668554 364.77518331 253.79326196 362.88610041 253.79714298 360.99701405 C253.80679084 358.16874587 253.83785933 355.341224 253.86940861 352.51312733 C254.06519374 318.94616002 244.6042069 287.21666091 220.80690861 262.82172108 C175.59835917 218.35860252 94.71157475 231.46792366 40.55690861 233.13422108 Z M322.74440861 463.75922108 C293.09495237 490.92719324 251.34326982 507.12449334 212.59206486 515.44281483 C209.65758484 515.98497359 209.65758484 515.98497359 207.55690861 517.13422108 C207.55690861 518.45422108 207.55690861 519.77422108 207.55690861 521.13422108 C208.12570744 521.2082616 208.69450626 521.28230213 209.28054142 521.35858631 C247.99918008 526.57774901 289.69782513 536.58102802 323.60378361 556.45843983 C326.28090624 558.29873273 326.28090624 558.29873273 328.55690861 558.13422108 C328.55690861 525.79422108 328.55690861 493.45422108 328.55690861 460.13422108 C325.60059731 460.13422108 324.8316981 461.690736 322.74440861 463.75922108 Z " fill="#F0592A" transform="translate(1176.443091392517,1013.8657789230347)"/>
<path d="M0 0 C4.25366072 0.4826849 6.63005591 3.15514839 9.5625 6 C13.4328975 9.65695646 17.34060301 13.16765292 21.5 16.5 C25.47629426 19.69931722 29.26668298 23.02584945 33 26.5 C37.61001639 30.7895776 42.37783236 34.80410897 47.28515625 38.75390625 C51.06567286 41.88167179 54.64480875 45.21273883 58.25390625 48.53515625 C60.91875166 50.92707297 63.64831825 53.19254884 66.4375 55.4375 C70.97316443 59.09571015 75.2570117 62.94742965 79.51928711 66.91381836 C82.75193975 69.90427 86.06696766 72.73779007 89.5 75.5 C94.01777813 79.13499389 98.27818516 82.9671029 102.51953125 86.9140625 C105.75211747 89.90441358 109.06705866 92.73786329 112.5 95.5 C117.01777813 99.13499389 121.27818516 102.9671029 125.51953125 106.9140625 C128.75211747 109.90441358 132.06705866 112.73786329 135.5 115.5 C139.47629426 118.69931722 143.26668298 122.02584945 147 125.5 C151.61001639 129.7895776 156.37783236 133.80410897 161.28515625 137.75390625 C165.06567286 140.88167179 168.64480875 144.21273883 172.25390625 147.53515625 C174.91875166 149.92707297 177.64831825 152.19254884 180.4375 154.4375 C184.97316443 158.09571015 189.2570117 161.94742965 193.51928711 165.91381836 C196.75193975 168.90427 200.06696766 171.73779007 203.5 174.5 C208.01777813 178.13499389 212.27818516 181.9671029 216.51953125 185.9140625 C219.75211747 188.90441358 223.06705866 191.73786329 226.5 194.5 C231.01777813 198.13499389 235.27818516 201.9671029 239.51953125 205.9140625 C242.75211747 208.90441358 246.06705866 211.73786329 249.5 214.5 C253.47629426 217.69931722 257.26668298 221.02584945 261 224.5 C265.61001639 228.7895776 270.37783236 232.80410897 275.28515625 236.75390625 C279.06567286 239.88167179 282.64480875 243.21273883 286.25390625 246.53515625 C288.91875166 248.92707297 291.64831825 251.19254884 294.4375 253.4375 C298.97316443 257.09571015 303.2570117 260.94742965 307.51928711 264.91381836 C310.75193975 267.90427 314.06696766 270.73779007 317.5 273.5 C322.01777813 277.13499389 326.27818516 280.9671029 330.51953125 284.9140625 C333.75211747 287.90441358 337.06705866 290.73786329 340.5 293.5 C344.47629426 296.69931722 348.26668298 300.02584945 352 303.5 C356.61001639 307.7895776 361.37783236 311.80410897 366.28515625 315.75390625 C370.06567286 318.88167179 373.64480875 322.21273883 377.25390625 325.53515625 C379.91875166 327.92707297 382.64831825 330.19254884 385.4375 332.4375 C389.97316443 336.09571015 394.2570117 339.94742965 398.51928711 343.91381836 C401.75193975 346.90427 405.06696766 349.73779007 408.5 352.5 C413.01777813 356.13499389 417.27818516 359.9671029 421.51953125 363.9140625 C424.75211747 366.90441358 428.06705866 369.73786329 431.5 372.5 C436.01777813 376.13499389 440.27818516 379.9671029 444.51953125 383.9140625 C447.75211747 386.90441358 451.06705866 389.73786329 454.5 392.5 C458.47629426 395.69931722 462.26668298 399.02584945 466 402.5 C470.61001639 406.7895776 475.37783236 410.80410897 480.28515625 414.75390625 C484.06567286 417.88167179 487.64480875 421.21273883 491.25390625 424.53515625 C493.91875166 426.92707297 496.64831825 429.19254884 499.4375 431.4375 C503.97316443 435.09571015 508.2570117 438.94742965 512.51928711 442.91381836 C515.75193975 445.90427 519.06696766 448.73779007 522.5 451.5 C527.01777813 455.13499389 531.27818516 458.9671029 535.51953125 462.9140625 C538.75211747 465.90441358 542.06705866 468.73786329 545.5 471.5 C550.01777813 475.13499389 554.27818516 478.9671029 558.51953125 482.9140625 C561.75211747 485.90441358 565.06705866 488.73786329 568.5 491.5 C572.47629426 494.69931722 576.26668298 498.02584945 580 501.5 C584.61001639 505.7895776 589.37783236 509.80410897 594.28515625 513.75390625 C598.06567286 516.88167179 601.64480875 520.21273883 605.25390625 523.53515625 C607.91875166 525.92707297 610.64831825 528.19254884 613.4375 530.4375 C617.97316443 534.09571015 622.2570117 537.94742965 626.51928711 541.91381836 C629.75193975 544.90427 633.06696766 547.73779007 636.5 550.5 C641.01777813 554.13499389 645.27818516 557.9671029 649.51953125 561.9140625 C652.75211747 564.90441358 656.06705866 567.73786329 659.5 570.5 C664.01777813 574.13499389 668.27818516 577.9671029 672.51953125 581.9140625 C675.75211747 584.90441358 679.06705866 587.73786329 682.5 590.5 C686.47629426 593.69931722 690.26668298 597.02584945 694 600.5 C698.61001639 604.7895776 703.37783236 608.80410897 708.28515625 612.75390625 C712.06567286 615.88167179 715.64480875 619.21273883 719.25390625 622.53515625 C721.91875166 624.92707297 724.64831825 627.19254884 727.4375 629.4375 C731.97316443 633.09571015 736.2570117 636.94742965 740.51928711 640.91381836 C743.75193975 643.90427 747.06696766 646.73779007 750.5 649.5 C755.01777813 653.13499389 759.27818516 656.9671029 763.51953125 660.9140625 C766.75211747 663.90441358 770.06705866 666.73786329 773.5 669.5 C778.01777813 673.13499389 782.27818516 676.9671029 786.51953125 680.9140625 C789.75211747 683.90441358 793.06705866 686.73786329 796.5 689.5 C800.47629426 692.69931722 804.26668298 696.02584945 808 699.5 C812.61001639 703.7895776 817.37783236 707.80410897 822.28515625 711.75390625 C826.06567286 714.88167179 829.64480875 718.21273883 833.25390625 721.53515625 C835.91875166 723.92707297 838.64831825 726.19254884 841.4375 728.4375 C845.97316443 732.09571015 850.2570117 735.94742965 854.51928711 739.91381836 C857.75193975 742.90427 861.06696766 745.73779007 864.5 748.5 C869.01777813 752.13499389 873.27818516 755.9671029 877.51953125 759.9140625 C881.6054577 763.69380841 885.87742411 767.19493536 890.21484375 770.68359375 C894.73267025 774.44105674 899.02607998 778.44974037 903.24161148 782.54317856 C905.02281417 784.11813351 905.02281417 784.11813351 907.46612167 785.31451797 C911.14906369 787.50923276 914.3099086 789.63091715 915.56299114 793.93274784 C916.46747665 800.03582691 916.16028129 806.21464505 916.00488281 812.36230469 C915.98899488 814.4523327 915.97772595 816.54240016 915.97071838 818.63247681 C915.94679869 823.12611027 915.89232217 827.61796389 915.81458282 832.1109848 C915.69378314 839.22238434 915.6537866 846.33283815 915.62689209 853.44512939 C915.54792784 871.11086497 915.37170205 888.77547179 915.15802002 906.44006348 C914.99251112 920.16788776 914.85780143 933.89439853 914.82043147 947.62324834 C914.7977395 954.68691979 914.71013223 961.74582731 914.57293653 968.8081584 C914.50183287 973.21206223 914.48948857 977.6147297 914.49302483 982.01914597 C914.48286978 984.05265881 914.44879872 986.08622318 914.38833046 988.11886215 C913.81347222 999.82681164 913.81347222 999.82681164 919.04143524 1009.81082916 C921.92613919 1012.48325286 925.00730042 1014.74696455 928.30358458 1016.88356256 C930.68704392 1018.45215432 932.86369869 1020.24768047 935.0625 1022.0625 C936.24199219 1022.99449219 936.24199219 1022.99449219 937.4453125 1023.9453125 C941.05852047 1026.85134827 944.58221737 1029.85895582 948.11352539 1032.86352539 C951.54590964 1035.78017061 955.0060174 1038.65700688 958.5 1041.5 C963.1045358 1045.24787798 967.64019191 1049.06983444 972.1640625 1052.9140625 C976.44740948 1056.54780235 980.787994 1060.10662437 985.14453125 1063.65234375 C990.48130877 1068.04003634 995.73738641 1072.52385012 1001 1077 C999.4805627 1081.8603687 996.67081346 1085.06079356 993.375 1088.8125 C992.859375 1089.40998047 992.34375 1090.00746094 991.8125 1090.62304688 C990.54753728 1092.08712409 989.27456166 1093.54427155 988 1095 C983.66370183 1092.21932449 979.70937211 1089.18534286 975.8125 1085.8125 C974.66339904 1084.82868068 973.51364963 1083.84561829 972.36328125 1082.86328125 C971.79561035 1082.37811035 971.22793945 1081.89293945 970.64306641 1081.39306641 C968.28810848 1079.396426 965.8960583 1077.44701662 963.5 1075.5 C958.8954642 1071.75212202 954.35980809 1067.93016556 949.8359375 1064.0859375 C945.53490247 1060.43719215 941.17653903 1056.86355273 936.80078125 1053.3046875 C933.73224213 1050.77966925 930.70960188 1048.20515231 927.6875 1045.625 C923.25148397 1041.84207508 918.73399357 1038.19467263 914.125 1034.625 C908.37972845 1030.16948329 902.86904559 1025.48856595 897.39941406 1020.70019531 C892.92239615 1016.78368043 888.36457063 1012.98672933 883.7421875 1009.2421875 C880.62999852 1006.69746317 877.56273503 1004.10381775 874.5 1001.5 C869.65190534 997.38004393 864.75153834 993.33203775 859.81640625 989.31640625 C856.66214808 986.72212734 853.5479702 984.08393735 850.4375 981.4375 C846.66911061 978.23260809 842.87753972 975.07312306 839 972 C834.54746299 968.47116597 830.21314021 964.81770671 825.88671875 961.13671875 C822.45428391 958.21995487 818.99407185 955.34306574 815.5 952.5 C810.8954642 948.75212202 806.35980809 944.93016556 801.8359375 941.0859375 C797.53986956 937.44140593 793.18631659 933.8721266 788.81640625 930.31640625 C785.66214808 927.72212734 782.5479702 925.08393735 779.4375 922.4375 C775.66911061 919.23260809 771.87753972 916.07312306 768 913 C763.54746299 909.47116597 759.21314021 905.81770671 754.88671875 902.13671875 C751.45428391 899.21995487 747.99407185 896.34306574 744.5 893.5 C739.8954642 889.75212202 735.35980809 885.93016556 730.8359375 882.0859375 C726.53986956 878.44140593 722.18631659 874.8721266 717.81640625 871.31640625 C714.66214808 868.72212734 711.5479702 866.08393735 708.4375 863.4375 C704.66911061 860.23260809 700.87753972 857.07312306 697 854 C692.54746299 850.47116597 688.21314021 846.81770671 683.88671875 843.13671875 C680.45428391 840.21995487 676.99407185 837.34306574 673.5 834.5 C668.8954642 830.75212202 664.35980809 826.93016556 659.8359375 823.0859375 C655.53986956 819.44140593 651.18631659 815.8721266 646.81640625 812.31640625 C643.66214808 809.72212734 640.5479702 807.08393735 637.4375 804.4375 C633.66911061 801.23260809 629.87753972 798.07312306 626 795 C621.54746299 791.47116597 617.21314021 787.81770671 612.88671875 784.13671875 C609.45428391 781.21995487 605.99407185 778.34306574 602.5 775.5 C597.8954642 771.75212202 593.35980809 767.93016556 588.8359375 764.0859375 C584.53986956 760.44140593 580.18631659 756.8721266 575.81640625 753.31640625 C572.66214808 750.72212734 569.5479702 748.08393735 566.4375 745.4375 C562.66911061 742.23260809 558.87753972 739.07312306 555 736 C550.54746299 732.47116597 546.21314021 728.81770671 541.88671875 725.13671875 C538.45428391 722.21995487 534.99407185 719.34306574 531.5 716.5 C526.8954642 712.75212202 522.35980809 708.93016556 517.8359375 705.0859375 C513.53986956 701.44140593 509.18631659 697.8721266 504.81640625 694.31640625 C501.66214808 691.72212734 498.5479702 689.08393735 495.4375 686.4375 C491.66911061 683.23260809 487.87753972 680.07312306 484 677 C479.54746299 673.47116597 475.21314021 669.81770671 470.88671875 666.13671875 C467.45428391 663.21995487 463.99407185 660.34306574 460.5 657.5 C455.8954642 653.75212202 451.35980809 649.93016556 446.8359375 646.0859375 C442.53986956 642.44140593 438.18631659 638.8721266 433.81640625 635.31640625 C430.66214808 632.72212734 427.5479702 630.08393735 424.4375 627.4375 C420.66911061 624.23260809 416.87753972 621.07312306 413 618 C408.54746299 614.47116597 404.21314021 610.81770671 399.88671875 607.13671875 C396.45428391 604.21995487 392.99407185 601.34306574 389.5 598.5 C385.46016457 595.21176186 381.46919573 591.87265239 377.5 588.5 C372.7308879 584.44987401 367.92087568 580.45647887 363.0703125 576.50390625 C353.49138111 568.69208052 343.94770048 560.84027163 334.53173828 552.83251953 C330.33671818 549.26971596 326.08085722 545.78674425 321.8125 542.3125 C318.11985636 539.27632634 314.47878212 536.1815003 310.8359375 533.0859375 C306.53986956 529.44140593 302.18631659 525.8721266 297.81640625 522.31640625 C294.66214808 519.72212734 291.5479702 517.08393735 288.4375 514.4375 C284.66911061 511.23260809 280.87753972 508.07312306 277 505 C268.4721379 498.23892173 260.24814519 491.09724121 252 484 C254.16363161 480.58811939 256.39301668 477.47312193 259.0625 474.4375 C261.39501192 471.78020794 263.29988329 469.11688063 265 466 C269.50709984 468.87123981 273.49460937 472.03365521 277.5 475.5625 C282.21189604 479.6622823 286.99378296 483.62076799 291.9375 487.4375 C297.66490508 491.86956462 303.15266481 496.53038418 308.60083008 501.30004883 C313.07779696 505.21644597 317.63551893 509.01334323 322.2578125 512.7578125 C325.37000148 515.30253683 328.43726497 517.89618225 331.5 520.5 C336.34809466 524.61995607 341.24846166 528.66796225 346.18359375 532.68359375 C349.33785192 535.27787266 352.4520298 537.91606265 355.5625 540.5625 C359.33088939 543.76739191 363.12246028 546.92687694 367 550 C371.45253701 553.52883403 375.78685979 557.18229329 380.11328125 560.86328125 C383.54571609 563.78004513 387.00592815 566.65693426 390.5 569.5 C395.1045358 573.24787798 399.64019191 577.06983444 404.1640625 580.9140625 C408.46013044 584.55859407 412.81368341 588.1278734 417.18359375 591.68359375 C420.33785192 594.27787266 423.4520298 596.91606265 426.5625 599.5625 C430.33088939 602.76739191 434.12246028 605.92687694 438 609 C442.45253701 612.52883403 446.78685979 616.18229329 451.11328125 619.86328125 C454.54571609 622.78004513 458.00592815 625.65693426 461.5 628.5 C466.1045358 632.24787798 470.64019191 636.06983444 475.1640625 639.9140625 C479.46013044 643.55859407 483.81368341 647.1278734 488.18359375 650.68359375 C491.33785192 653.27787266 494.4520298 655.91606265 497.5625 658.5625 C501.33088939 661.76739191 505.12246028 664.92687694 509 668 C513.45253701 671.52883403 517.78685979 675.18229329 522.11328125 678.86328125 C525.54571609 681.78004513 529.00592815 684.65693426 532.5 687.5 C537.1045358 691.24787798 541.64019191 695.06983444 546.1640625 698.9140625 C550.46013044 702.55859407 554.81368341 706.1278734 559.18359375 709.68359375 C562.33785192 712.27787266 565.4520298 714.91606265 568.5625 717.5625 C572.33088939 720.76739191 576.12246028 723.92687694 580 727 C584.45253701 730.52883403 588.78685979 734.18229329 593.11328125 737.86328125 C596.54571609 740.78004513 600.00592815 743.65693426 603.5 746.5 C608.1045358 750.24787798 612.64019191 754.06983444 617.1640625 757.9140625 C621.46013044 761.55859407 625.81368341 765.1278734 630.18359375 768.68359375 C633.33785192 771.27787266 636.4520298 773.91606265 639.5625 776.5625 C643.33088939 779.76739191 647.12246028 782.92687694 651 786 C655.45253701 789.52883403 659.78685979 793.18229329 664.11328125 796.86328125 C667.54571609 799.78004513 671.00592815 802.65693426 674.5 805.5 C679.1045358 809.24787798 683.64019191 813.06983444 688.1640625 816.9140625 C692.46013044 820.55859407 696.81368341 824.1278734 701.18359375 827.68359375 C704.33785192 830.27787266 707.4520298 832.91606265 710.5625 835.5625 C714.33088939 838.76739191 718.12246028 841.92687694 722 845 C726.45253701 848.52883403 730.78685979 852.18229329 735.11328125 855.86328125 C738.54571609 858.78004513 742.00592815 861.65693426 745.5 864.5 C750.1045358 868.24787798 754.64019191 872.06983444 759.1640625 875.9140625 C763.46013044 879.55859407 767.81368341 883.1278734 772.18359375 886.68359375 C775.33785192 889.27787266 778.4520298 891.91606265 781.5625 894.5625 C785.33088939 897.76739191 789.12246028 900.92687694 793 904 C797.45253701 907.52883403 801.78685979 911.18229329 806.11328125 914.86328125 C809.54571609 917.78004513 813.00592815 920.65693426 816.5 923.5 C821.1045358 927.24787798 825.64019191 931.06983444 830.1640625 934.9140625 C834.46013044 938.55859407 838.81368341 942.1278734 843.18359375 945.68359375 C846.33785192 948.27787266 849.4520298 950.91606265 852.5625 953.5625 C857.11145416 957.43123672 861.72507098 961.1977835 866.40625 964.90625 C870.51513795 968.22306317 874.51923215 971.66078627 878.53125 975.09375 C881.38373429 977.51081037 884.29487101 979.84911099 887.21679688 982.18164062 C888.11362183 982.89791626 889.01044678 983.61419189 889.93444824 984.35217285 C890.95689636 985.16784729 890.95689636 985.16784729 892 986 C892.35096482 962.3648462 892.61518651 938.73008485 892.77718258 915.09284687 C892.85441284 904.11659262 892.95962849 893.14196067 893.1315918 882.16674805 C893.28146895 872.59654776 893.37795765 863.02752255 893.41132742 853.45618123 C893.43082533 848.39108843 893.47637195 843.32935599 893.58595085 838.26534462 C893.68844602 833.48961176 893.71904966 828.71859232 893.69661522 823.94186401 C893.70071312 822.19743822 893.73017601 820.45284082 893.78808212 818.70937157 C894.18300743 809.35422947 894.18300743 809.35422947 890.51694226 801.02094245 C886.9485217 797.27709132 882.96402348 794.19057362 878.73461354 791.2317003 C876.56513987 789.69121805 874.58276602 787.98115483 872.60546875 786.203125 C872.02829102 785.70458008 871.45111328 785.20603516 870.85644531 784.69238281 C866.11062288 780.5908148 861.38973109 776.4719354 856.75 772.25 C853.43560714 769.24239392 850.04340917 766.37570304 846.5625 763.5625 C841.78715598 759.70058325 837.26332315 755.62325776 832.74609375 751.46484375 C830.08124834 749.07292703 827.35168175 746.80745116 824.5625 744.5625 C820.02683557 740.90428985 815.7429883 737.05257035 811.48071289 733.08618164 C808.24806025 730.09573 804.93303234 727.26220993 801.5 724.5 C796.98222187 720.86500611 792.72181484 717.0328971 788.48046875 713.0859375 C785.24788253 710.09558642 781.93294134 707.26213671 778.5 704.5 C773.98222187 700.86500611 769.72181484 697.0328971 765.48046875 693.0859375 C762.24788253 690.09558642 758.93294134 687.26213671 755.5 684.5 C751.52370574 681.30068278 747.73331702 677.97415055 744 674.5 C739.38998361 670.2104224 734.62216764 666.19589103 729.71484375 662.24609375 C725.93432714 659.11832821 722.35519125 655.78726117 718.74609375 652.46484375 C716.08124834 650.07292703 713.35168175 647.80745116 710.5625 645.5625 C706.02683557 641.90428985 701.7429883 638.05257035 697.48071289 634.08618164 C694.24806025 631.09573 690.93303234 628.26220993 687.5 625.5 C682.98222187 621.86500611 678.72181484 618.0328971 674.48046875 614.0859375 C671.24788253 611.09558642 667.93294134 608.26213671 664.5 605.5 C659.98222187 601.86500611 655.72181484 598.0328971 651.48046875 594.0859375 C648.24788253 591.09558642 644.93294134 588.26213671 641.5 585.5 C637.52370574 582.30068278 633.73331702 578.97415055 630 575.5 C625.38998361 571.2104224 620.62216764 567.19589103 615.71484375 563.24609375 C611.93432714 560.11832821 608.35519125 556.78726117 604.74609375 553.46484375 C602.08124834 551.07292703 599.35168175 548.80745116 596.5625 546.5625 C592.02683557 542.90428985 587.7429883 539.05257035 583.48071289 535.08618164 C580.24806025 532.09573 576.93303234 529.26220993 573.5 526.5 C568.98222187 522.86500611 564.72181484 519.0328971 560.48046875 515.0859375 C557.24788253 512.09558642 553.93294134 509.26213671 550.5 506.5 C545.98222187 502.86500611 541.72181484 499.0328971 537.48046875 495.0859375 C534.24788253 492.09558642 530.93294134 489.26213671 527.5 486.5 C523.52370574 483.30068278 519.73331702 479.97415055 516 476.5 C511.38998361 472.2104224 506.62216764 468.19589103 501.71484375 464.24609375 C497.93432714 461.11832821 494.35519125 457.78726117 490.74609375 454.46484375 C488.08124834 452.07292703 485.35168175 449.80745116 482.5625 447.5625 C478.02683557 443.90428985 473.7429883 440.05257035 469.48071289 436.08618164 C466.24806025 433.09573 462.93303234 430.26220993 459.5 427.5 C454.98222187 423.86500611 450.72181484 420.0328971 446.48046875 416.0859375 C443.24788253 413.09558642 439.93294134 410.26213671 436.5 407.5 C431.98222187 403.86500611 427.72181484 400.0328971 423.48046875 396.0859375 C420.24788253 393.09558642 416.93294134 390.26213671 413.5 387.5 C409.52370574 384.30068278 405.73331702 380.97415055 402 377.5 C397.38998361 373.2104224 392.62216764 369.19589103 387.71484375 365.24609375 C383.93432714 362.11832821 380.35519125 358.78726117 376.74609375 355.46484375 C374.08124834 353.07292703 371.35168175 350.80745116 368.5625 348.5625 C364.02683557 344.90428985 359.7429883 341.05257035 355.48071289 337.08618164 C352.24806025 334.09573 348.93303234 331.26220993 345.5 328.5 C340.98222187 324.86500611 336.72181484 321.0328971 332.48046875 317.0859375 C329.24788253 314.09558642 325.93294134 311.26213671 322.5 308.5 C317.98222187 304.86500611 313.72181484 301.0328971 309.48046875 297.0859375 C306.24788253 294.09558642 302.93294134 291.26213671 299.5 288.5 C295.52370574 285.30068278 291.73331702 281.97415055 288 278.5 C283.38998361 274.2104224 278.62216764 270.19589103 273.71484375 266.24609375 C269.93432714 263.11832821 266.35519125 259.78726117 262.74609375 256.46484375 C260.08124834 254.07292703 257.35168175 251.80745116 254.5625 249.5625 C250.02683557 245.90428985 245.7429883 242.05257035 241.48071289 238.08618164 C238.24806025 235.09573 234.93303234 232.26220993 231.5 229.5 C226.98222187 225.86500611 222.72181484 222.0328971 218.48046875 218.0859375 C215.24788253 215.09558642 211.93294134 212.26213671 208.5 209.5 C204.52369231 206.30067197 200.73342832 202.97404571 197 199.5 C192.2886469 195.11851798 187.43666299 190.97433039 182.41015625 186.953125 C180.39262779 185.31817487 178.47949099 183.62383389 176.5625 181.875 C174.27267735 179.77829721 174.27267735 179.77829721 172.10546875 180.125 C169.31464638 181.28482228 167.81961177 182.92882923 165.75 185.125 C162.36617526 188.69407062 158.81931979 191.93792126 155.10546875 195.15283203 C151.69855385 198.14178357 148.41692855 201.26064268 145.125 204.375 C139.96269539 209.23745426 134.76652854 214.04962167 129.4765625 218.7734375 C124.83211902 222.94904126 120.26096117 227.20472003 115.67773438 231.44726562 C106.31709736 240.11048614 96.92780911 248.74199919 87.52050781 257.35449219 C81.28637461 263.06260755 75.0639464 268.7830084 68.85571289 274.51928711 C64.75321792 278.30851177 60.63855333 282.0842269 56.51953125 285.85546875 C52.83790943 289.22787299 49.16703046 292.61174008 45.5 296 C38.85739742 302.13702617 32.19088341 308.24768628 25.52050781 314.35449219 C19.28637461 320.06260755 13.0639464 325.7830084 6.85571289 331.51928711 C2.75321792 335.30851177 -1.36144667 339.0842269 -5.48046875 342.85546875 C-9.16209057 346.22787299 -12.83296954 349.61174008 -16.5 353 C-23.14260258 359.13702617 -29.80911659 365.24768628 -36.47949219 371.35449219 C-42.16322346 376.55864692 -47.83959185 381.77047632 -53.5 387 C-60.14264017 393.13698573 -66.80911637 399.24768607 -73.47949219 405.35449219 C-79.71362539 411.06260755 -85.9360536 416.7830084 -92.14428711 422.51928711 C-96.24678208 426.30851177 -100.36144667 430.0842269 -104.48046875 433.85546875 C-108.16209057 437.22787299 -111.83296954 440.61174008 -115.5 444 C-122.14260258 450.13702617 -128.80911659 456.24768628 -135.47949219 462.35449219 C-141.16322346 467.55864692 -146.83959185 472.77047632 -152.5 478 C-159.14264017 484.13698573 -165.80911637 490.24768607 -172.47949219 496.35449219 C-178.71362539 502.06260755 -184.9360536 507.7830084 -191.14428711 513.51928711 C-195.24678208 517.30851177 -199.36144667 521.0842269 -203.48046875 524.85546875 C-207.16209057 528.22787299 -210.83296954 531.61174008 -214.5 535 C-221.14260258 541.13702617 -227.80911659 547.24768628 -234.47949219 553.35449219 C-240.71362539 559.06260755 -246.9360536 564.7830084 -253.14428711 570.51928711 C-257.24678208 574.30851177 -261.36144667 578.0842269 -265.48046875 581.85546875 C-269.16209057 585.22787299 -272.83296954 588.61174008 -276.5 592 C-283.14260258 598.13702617 -289.80911659 604.24768628 -296.47949219 610.35449219 C-302.16322346 615.55864692 -307.83959185 620.77047632 -313.5 626 C-320.14264017 632.13698573 -326.80911637 638.24768607 -333.47949219 644.35449219 C-339.71362539 650.06260755 -345.9360536 655.7830084 -352.14428711 661.51928711 C-356.24678208 665.30851177 -360.36144667 669.0842269 -364.48046875 672.85546875 C-368.16209057 676.22787299 -371.83296954 679.61174008 -375.5 683 C-382.14260258 689.13702617 -388.80911659 695.24768628 -395.47949219 701.35449219 C-401.16322346 706.55864692 -406.83959185 711.77047632 -412.5 717 C-419.14264017 723.13698573 -425.80911637 729.24768607 -432.47949219 735.35449219 C-438.71362539 741.06260755 -444.9360536 746.7830084 -451.14428711 752.51928711 C-455.24678208 756.30851177 -459.36144667 760.0842269 -463.48046875 763.85546875 C-467.16209057 767.22787299 -470.83296954 770.61174008 -474.5 774 C-481.14260258 780.13702617 -487.80911659 786.24768628 -494.47949219 792.35449219 C-500.71362539 798.06260755 -506.9360536 803.7830084 -513.14428711 809.51928711 C-517.24678208 813.30851177 -521.36144667 817.0842269 -525.48046875 820.85546875 C-533.29963476 827.97620467 -533.29963476 827.97620467 -541.00155641 835.2217489 C-543 837 -543 837 -545.9234923 839.1292599 C-550.69358551 842.74600518 -554.36270254 845.86867239 -556.11547545 851.73050853 C-556.68163362 856.17411952 -556.57931494 860.61071147 -556.49219131 865.08021832 C-556.50278775 866.81107258 -556.51864749 868.54190113 -556.53926383 870.27266504 C-556.58068081 875.02665839 -556.54753443 879.77763963 -556.50213096 884.53148834 C-556.46606691 889.69169154 -556.4996731 894.85151437 -556.52449036 900.01171875 C-556.55839133 909.06409317 -556.54763204 918.11556621 -556.5078969 927.16790426 C-556.44828637 940.80303656 -556.45860749 954.43752703 -556.48216143 968.07273783 C-556.519746 990.92255595 -556.50304701 1013.77190305 -556.45306396 1036.62165833 C-556.38568901 1067.5176566 -556.39330307 1098.41301663 -556.41357422 1129.3092041 C-556.4243653 1203.60198863 -556.33076129 1277.89475859 -556.25 1352.1875 C-556.1675 1518.115625 -556.085 1684.04375 -556 1855 C-72.88 1855 410.24 1855 908 1855 C908 1867.21 908 1879.42 908 1892 C406.73 1892 -94.54 1892 -611 1892 C-611 1879.79 -611 1867.58 -611 1855 C-600.11 1855 -589.22 1855 -578 1855 C-578.33 1529.95 -578.66 1204.9 -579 870 C-583.29 873.96 -587.58 877.92 -592 882 C-598 887.5 -598 887.5 -600.96875 890.21875 C-604.15321931 893.13784686 -607.32713416 896.06830211 -610.5 899 C-615.14988581 903.29645031 -619.81103067 907.58028402 -624.48046875 911.85546875 C-628.16209057 915.22787299 -631.83296954 918.61174008 -635.5 922 C-642.14260258 928.13702617 -648.80911659 934.24768628 -655.47949219 940.35449219 C-660.61396114 945.05572975 -665.74517005 949.7603141 -670.85888672 954.48413086 C-671.94993461 955.49191372 -673.04140381 956.49924067 -674.13330078 957.50610352 C-676.83138105 959.9942432 -679.52422625 962.48757922 -682.20703125 964.9921875 C-687.5926102 970.00158024 -693.00214347 974.73229439 -699 979 C-700.77399627 977.25311063 -702.54422553 975.50266549 -704.3125 973.75 C-704.81201172 973.25886719 -705.31152344 972.76773438 -705.82617188 972.26171875 C-711.11986389 967.0030843 -711.11986389 967.0030843 -713 964 C-713 961 -713 961 -711.52685547 959.43505859 C-710.51969482 958.61255615 -710.51969482 958.61255615 -709.4921875 957.7734375 C-706.61509655 955.36214922 -703.80127704 952.92781383 -701.0703125 950.3515625 C-700.42553955 949.74352783 -699.7807666 949.13549316 -699.11645508 948.5090332 C-698.4592749 947.88730225 -697.80209473 947.26557129 -697.125 946.625 C-691.96269539 941.76254574 -686.76652854 936.95037833 -681.4765625 932.2265625 C-676.83211902 928.05095874 -672.26096117 923.79527997 -667.67773438 919.55273438 C-658.31709736 910.88951386 -648.92780911 902.25800081 -639.52050781 893.64550781 C-633.28637461 887.93739245 -627.0639464 882.2169916 -620.85571289 876.48071289 C-616.75321792 872.69148823 -612.63855333 868.9157731 -608.51953125 865.14453125 C-600.68531437 858.02992315 -600.68531437 858.02992315 -592.99859238 850.75941181 C-591 849 -591 849 -588.07516861 847.04029369 C-582.91450688 843.21529405 -579.01968424 839.96268601 -577.89116669 833.40369606 C-577.32681278 827.64024247 -577.44824577 821.87971897 -577.54589844 816.09692383 C-577.53941387 813.87855976 -577.52765123 811.66020582 -577.5110321 809.44189453 C-577.48095591 803.44385984 -577.5243872 797.4483757 -577.58134365 791.45062089 C-577.62834278 785.17388276 -577.60729631 778.89737531 -577.59356689 772.62052917 C-577.57966117 762.09331905 -577.60743741 751.56680948 -577.66748047 741.03979492 C-577.72918203 730.20183213 -577.76552495 719.36426814 -577.76806641 708.52612305 C-577.76823209 707.856939 -577.76839778 707.18775495 -577.76856849 706.4982926 C-577.76924433 703.14085351 -577.76942482 699.7834146 -577.76935911 696.42597544 C-577.77056109 668.61689729 -577.85949056 640.80869314 -578 613 C-570.74 613 -563.48 613 -556 613 C-555.67 679.99 -555.34 746.98 -555 816 C-546.65328119 808.29602176 -546.65328119 808.29602176 -538.30859375 800.58984375 C-530.73029867 793.58894258 -523.13019031 786.61226004 -515.52050781 779.64550781 C-509.83677654 774.44135308 -504.16040815 769.22952368 -498.5 764 C-491.85735983 757.86301427 -485.19088363 751.75231393 -478.52050781 745.64550781 C-472.28637461 739.93739245 -466.0639464 734.2169916 -459.85571289 728.48071289 C-455.75321792 724.69148823 -451.63855333 720.9157731 -447.51953125 717.14453125 C-443.83790943 713.77212701 -440.16703046 710.38825992 -436.5 707 C-429.85739742 700.86297383 -423.19088341 694.75231372 -416.52050781 688.64550781 C-410.83677654 683.44135308 -405.16040815 678.22952368 -399.5 673 C-392.85735983 666.86301427 -386.19088363 660.75231393 -379.52050781 654.64550781 C-373.28637461 648.93739245 -367.0639464 643.2169916 -360.85571289 637.48071289 C-356.75321792 633.69148823 -352.63855333 629.9157731 -348.51953125 626.14453125 C-344.83790943 622.77212701 -341.16703046 619.38825992 -337.5 616 C-330.85739742 609.86297383 -324.19088341 603.75231372 -317.52050781 597.64550781 C-311.28637461 591.93739245 -305.0639464 586.2169916 -298.85571289 580.48071289 C-294.75321792 576.69148823 -290.63855333 572.9157731 -286.51953125 569.14453125 C-282.83790943 565.77212701 -279.16703046 562.38825992 -275.5 559 C-268.85739742 552.86297383 -262.19088341 546.75231372 -255.52050781 540.64550781 C-249.83677654 535.44135308 -244.16040815 530.22952368 -238.5 525 C-231.85735983 518.86301427 -225.19088363 512.75231393 -218.52050781 506.64550781 C-212.28637461 500.93739245 -206.0639464 495.2169916 -199.85571289 489.48071289 C-195.75321792 485.69148823 -191.63855333 481.9157731 -187.51953125 478.14453125 C-183.83790943 474.77212701 -180.16703046 471.38825992 -176.5 468 C-169.85739742 461.86297383 -163.19088341 455.75231372 -156.52050781 449.64550781 C-150.83677654 444.44135308 -145.16040815 439.22952368 -139.5 434 C-132.85735983 427.86301427 -126.19088363 421.75231393 -119.52050781 415.64550781 C-113.28637461 409.93739245 -107.0639464 404.2169916 -100.85571289 398.48071289 C-96.75321792 394.69148823 -92.63855333 390.9157731 -88.51953125 387.14453125 C-84.83790943 383.77212701 -81.16703046 380.38825992 -77.5 377 C-70.85739742 370.86297383 -64.19088341 364.75231372 -57.52050781 358.64550781 C-51.28637461 352.93739245 -45.0639464 347.2169916 -38.85571289 341.48071289 C-34.75321792 337.69148823 -30.63855333 333.9157731 -26.51953125 330.14453125 C-22.83790943 326.77212701 -19.16703046 323.38825992 -15.5 320 C-8.85739742 313.86297383 -2.19088341 307.75231372 4.47949219 301.64550781 C10.16322346 296.44135308 15.83959185 291.22952368 21.5 286 C28.14264017 279.86301427 34.80911637 273.75231393 41.47949219 267.64550781 C47.71362539 261.93739245 53.9360536 256.2169916 60.14428711 250.48071289 C64.24678208 246.69148823 68.36144667 242.9157731 72.48046875 239.14453125 C76.16209057 235.77212701 79.83296954 232.38825992 83.5 229 C90.14260258 222.86297383 96.80911659 216.75231372 103.47949219 210.64550781 C109.71362539 204.93739245 115.9360536 199.2169916 122.14428711 193.48071289 C125.75526608 190.14547161 129.37454304 186.81949354 133 183.5 C137.35972091 179.506008 141.71470958 175.50697818 146.0625 171.5 C146.61099609 170.99533203 147.15949219 170.49066406 147.72460938 169.97070312 C150.19680581 167.69034171 152.63217846 165.38824503 155 163 C154.03320312 162.16597656 153.06640625 161.33195313 152.0703125 160.47265625 C140.24010129 150.25150004 140.24010129 150.25150004 134.75 145.25 C131.43560714 142.24239392 128.04340917 139.37570304 124.5625 136.5625 C119.78715598 132.70058325 115.26332315 128.62325776 110.74609375 124.46484375 C108.08124834 122.07292703 105.35168175 119.80745116 102.5625 117.5625 C98.02683557 113.90428985 93.7429883 110.05257035 89.48071289 106.08618164 C86.24806025 103.09573 82.93303234 100.26220993 79.5 97.5 C74.98222187 93.86500611 70.72181484 90.0328971 66.48046875 86.0859375 C63.24788253 83.09558642 59.93294134 80.26213671 56.5 77.5 C51.98222187 73.86500611 47.72181484 70.0328971 43.48046875 66.0859375 C40.24788253 63.09558642 36.93294134 60.26213671 33.5 57.5 C29.52370574 54.30068278 25.73331702 50.97415055 22 47.5 C17.39477993 43.21488533 12.63190803 39.20442595 7.73046875 35.2578125 C3.87585501 32.07044949 0.20814368 28.69366227 -3.47265625 25.30859375 C-6.58789598 22.46298837 -9.77662843 19.72195822 -13 17 C-11.38071731 13.09521545 -8.80673954 10.43827444 -5.9375 7.375 C-2.58466353 3.95790247 -2.58466353 3.95790247 0 0 Z " fill="#000000" transform="translate(1100,296)"/>
<path d="M0 0 C64.2571875 -0.0928125 64.2571875 -0.0928125 129.8125 -0.1875 C143.29714111 -0.21481201 156.78178223 -0.24212402 170.67504883 -0.27026367 C187.24743652 -0.28381348 187.24743652 -0.28381348 195.02616882 -0.28633118 C200.41419008 -0.28910588 205.80211904 -0.30001174 211.19010925 -0.31672668 C217.42919348 -0.33605274 223.66818756 -0.34445523 229.90730182 -0.34033485 C233.08737635 -0.33855558 236.26721396 -0.34279435 239.44725955 -0.35764539 C260.93213858 -0.45319633 282.34445722 1.02235883 303.4375 5.3125 C304.49984863 5.52414795 305.56219727 5.7357959 306.65673828 5.95385742 C336.61132892 12.13314376 365.20384093 23.9856964 390 42 C391.03957572 42.68874081 392.07915144 43.37748161 393.15022945 44.08709335 C395.70498541 46.25319094 396.44595039 47.71193004 396.7690134 51.04153824 C396.80842817 52.67081451 396.81491551 54.30108723 396.79554749 55.9307251 C396.81487914 57.28130575 396.81487914 57.28130575 396.83460134 58.65917087 C396.87025094 61.67724267 396.86298731 64.69366284 396.85571289 67.71191406 C396.87202844 69.8753807 396.89082221 72.03882987 396.91191101 74.20225525 C396.96067519 80.08059576 396.97059053 85.95839414 396.97061086 91.83691502 C396.97333973 96.74489457 396.99293621 101.65275339 397.01190466 106.56069255 C397.05558457 118.14193334 397.06577166 129.72288982 397.05688477 141.30419922 C397.04844485 153.24769145 397.10293608 165.18975877 397.18742949 177.13292336 C397.25737707 187.38878173 397.28480571 197.64417802 397.27899545 207.90027213 C397.27616351 214.02497495 397.29016862 220.14848685 397.3464222 226.27295685 C397.39777419 232.03567955 397.39607121 237.79600481 397.35394478 243.55877876 C397.34740157 245.6707058 397.35955296 247.78278818 397.39200974 249.89447594 C397.63271795 266.67707642 397.63271795 266.67707642 393.58819389 271.20833588 C390.82443304 273.50314664 388.14082357 275.27296135 385 277 C383.78187147 277.89663283 382.57596993 278.81045493 381.390625 279.75 C353.22271216 299.92999726 310.46334412 325 275 325 C275 326.32 275 327.64 275 329 C275.85907959 329.0424585 276.71815918 329.08491699 277.60327148 329.12866211 C285.9587485 329.62150136 293.89993496 330.73835347 302.0625 332.5625 C303.25713867 332.82571045 304.45177734 333.0889209 305.68261719 333.36010742 C337.18728549 340.45543873 367.86961775 349.8755129 396 366 C396.07099648 377.70508161 396.12354064 389.41010824 396.15543652 401.11536503 C396.17078121 406.55656344 396.1914092 411.99760984 396.22631836 417.4387207 C396.71148534 495.18773342 396.92444209 594.53088203 350 661 C349.20916016 662.15242188 349.20916016 662.15242188 348.40234375 663.328125 C331.36396536 685.46494398 291.88775703 693.41905463 266 697 C265.26007813 697.1045752 264.52015625 697.20915039 263.7578125 697.31689453 C232.01780965 701.14734824 167.6815759 703.56925798 141.1953125 682.80078125 C131.52982678 671.18396162 129.72005245 662.89943094 130 648 C134.01538631 649.52644835 137.78466536 651.39233268 141.625 653.3125 C147.46013835 656.10982863 153.30690974 658.16452192 159.5625 659.8125 C160.65715576 660.10411011 160.65715576 660.10411011 161.77392578 660.40161133 C174.93380861 663.67933559 187.83768989 664.34754888 201.32910156 664.31567383 C204.10001574 664.31252836 206.86984292 664.33600959 209.640625 664.36132812 C249.0439861 664.50167887 287.15474695 652.68735982 315.6875 624.75 C350.16578585 589.85080907 357.50305616 538.597587 357.23348999 491.65725708 C356.85905254 454.15423014 342.67771831 421.47668869 316.8125 394.4375 C280.91640208 359.38894884 230.34540019 353.34411868 182.48761368 353.73410034 C179.54120277 353.75563803 176.59479503 353.76539913 173.64832592 353.77539062 C151.75385884 353.85197363 129.883216 354.26132604 108 355 C108 368.86 108 382.72 108 397 C104.65875 396.05125 101.3175 395.1025 97.875 394.125 C70.50475919 386.58456799 44.87835557 386.99919677 19.70703125 401.26171875 C13.84354085 405.02687492 8.1407495 409.28685759 3.80859375 414.77734375 C3.21175781 415.51082031 2.61492187 416.24429687 2 417 C1.34 417 0.68 417 0 417 C0 279.39 0 141.78 0 0 Z M108 41 C108 130.43 108 219.86 108 312 C163.2632656 313.74812579 163.2632656 313.74812579 219 307.75 C220.02923584 307.53384033 221.05847168 307.31768066 222.11889648 307.0949707 C255.17989764 299.85505281 282.51548541 282.56830181 301 254 C315.16321197 231.2754881 321.06746662 203.82361152 321.203125 177.25 C321.20882507 176.35240967 321.21452515 175.45481934 321.22039795 174.5300293 C321.22977694 172.64096223 321.23635336 170.75187933 321.24023438 168.86279297 C321.24988223 166.0345248 321.28095073 163.20700293 321.3125 160.37890625 C321.50828514 126.81193894 312.04729829 95.08243984 288.25 70.6875 C243.04145057 26.22438144 162.15466614 39.33370258 108 41 Z " fill="#00ADEE" transform="translate(1109,1206)"/>
<path d="M0 0 C16.0565625 -0.0928125 16.0565625 -0.0928125 32.4375 -0.1875 C35.78060303 -0.21481201 39.12370605 -0.24212402 42.56811523 -0.27026367 C45.27327109 -0.27904074 47.97843096 -0.28668177 50.68359375 -0.29296875 C51.35979263 -0.30080887 52.03599152 -0.30864899 52.73268127 -0.31672668 C73.83082963 -0.54848223 94.42424973 3.14425363 111 17 C119.53497178 25.85108185 122.33726776 35.59647425 122.21484375 47.6484375 C121.69138911 55.81432982 118.79017425 62.44573892 114 69 C113.41476562 69.80824219 112.82953125 70.61648437 112.2265625 71.44921875 C101.1714347 84.11412832 82.95959062 88.0629482 67 90 C61.72142125 90.25260816 56.45419585 90.23536867 51.171875 90.1953125 C49.86686035 90.19329834 48.5618457 90.19128418 47.21728516 90.18920898 C42.39482044 90.17883387 37.57240626 90.15091212 32.75 90.125 C21.9425 90.08375 11.135 90.0425 0 90 C0 60.3 0 30.6 0 0 Z " fill="#FEFEFE" transform="translate(803,2029)"/>
<path d="M0 0 C28 0 28 0 35.125 4.9375 C36.79354235 6.9225337 38.42191233 8.94232372 40 11 C41.61139674 12.5166087 43.25700611 13.99783279 44.9375 15.4375 C48.82370905 18.92448372 52.66830259 22.45345217 56.5 26 C63.87521915 32.82250952 71.27965931 39.56638276 79 46 C79.33 30.82 79.66 15.64 80 0 C90.89 0 101.78 0 113 0 C113 29.7 113 59.4 113 90 C103.43 90 93.86 90 84 90 C80.7 86.7 77.4 83.4 74 80 C72.09103012 78.31009224 70.18181905 76.62013061 68.24609375 74.9609375 C65.36344591 72.4442606 62.55707633 69.85037755 59.75 67.25 C59.19642822 66.73759766 58.64285645 66.22519531 58.07250977 65.69726562 C56.94305078 64.65152467 55.81373838 63.60562538 54.68457031 62.55957031 C52.00250306 60.07652022 49.3155117 57.59889542 46.625 55.125 C45.70976563 54.28195313 44.79453125 53.43890625 43.8515625 52.5703125 C40.61852817 49.65615279 37.30471508 46.83261293 34 44 C33.67 59.18 33.34 74.36 33 90 C22.11 90 11.22 90 0 90 C0 60.3 0 30.6 0 0 Z " fill="#FEFDFD" transform="translate(1547,2029)"/>
<path d="M0 0 C28 0 28 0 35.125 4.9375 C36.79354235 6.9225337 38.42191233 8.94232372 40 11 C41.61139674 12.5166087 43.25700611 13.99783279 44.9375 15.4375 C48.82370905 18.92448372 52.66830259 22.45345217 56.5 26 C63.87521915 32.82250952 71.27965931 39.56638276 79 46 C79.33 30.82 79.66 15.64 80 0 C90.89 0 101.78 0 113 0 C113 29.7 113 59.4 113 90 C103.43 90 93.86 90 84 90 C80.7 86.7 77.4 83.4 74 80 C72.09103012 78.31009224 70.18181905 76.62013061 68.24609375 74.9609375 C65.36344591 72.4442606 62.55707633 69.85037755 59.75 67.25 C59.19642822 66.73759766 58.64285645 66.22519531 58.07250977 65.69726562 C56.94305078 64.65152467 55.81373838 63.60562538 54.68457031 62.55957031 C52.00250306 60.07652022 49.3155117 57.59889542 46.625 55.125 C45.70976563 54.28195313 44.79453125 53.43890625 43.8515625 52.5703125 C40.61852817 49.65615279 37.30471508 46.83261293 34 44 C33.67 59.18 33.34 74.36 33 90 C22.11 90 11.22 90 0 90 C0 60.3 0 30.6 0 0 Z " fill="#FEFDFD" transform="translate(1354,2029)"/>
<path d="M0 0 C30.69 0 61.38 0 93 0 C93 6.6 93 13.2 93 20 C73.2 20 53.4 20 33 20 C33 24.95 33 29.9 33 35 C50.49 35 67.98 35 86 35 C86 41.27 86 47.54 86 54 C68.51 54 51.02 54 33 54 C33 59.28 33 64.56 33 70 C53.46 70 73.92 70 95 70 C95 76.6 95 83.2 95 90 C63.65 90 32.3 90 0 90 C0 60.3 0 30.6 0 0 Z " fill="#FEFDFD" transform="translate(943,2029)"/>
<path d="M0 0 C1.328125 1.52734375 1.328125 1.52734375 1.328125 5.52734375 C-0.26074219 7.09887695 -0.26074219 7.09887695 -2.46875 8.578125 C-3.2628125 9.11115234 -4.056875 9.64417969 -4.875 10.19335938 C-5.71546875 10.73669922 -6.5559375 11.28003906 -7.421875 11.83984375 C-8.659375 12.68385742 -8.659375 12.68385742 -9.921875 13.54492188 C-16.06883292 17.59497399 -16.06883292 17.59497399 -18.79003906 17.28979492 C-20.671875 16.52734375 -20.671875 16.52734375 -23.109375 14.71484375 C-33.4972126 7.64282464 -47.01938071 6.92131233 -59.0390625 9.15234375 C-67.5589951 11.58041614 -73.45669636 16.2404389 -78.734375 23.27734375 C-80.71271813 30.13559994 -80.77696113 38.10831839 -77.8359375 44.71875 C-73.21139284 51.90386468 -65.74976169 55.52786469 -57.87890625 58.1171875 C-54.63018942 58.72093134 -51.40149001 58.71172326 -48.109375 58.71484375 C-47.45646484 58.72708984 -46.80355469 58.73933594 -46.13085938 58.75195312 C-39.93716316 58.76987124 -35.03721932 57.68467908 -28.671875 56.52734375 C-28.671875 48.27734375 -28.671875 40.02734375 -28.671875 31.52734375 C-19.101875 31.52734375 -9.531875 31.52734375 0.328125 31.52734375 C0.328125 44.06734375 0.328125 56.60734375 0.328125 69.52734375 C-16.391186 76.69276275 -30.88817884 80.93724897 -48.984375 80.83984375 C-50.61959106 80.83247192 -50.61959106 80.83247192 -52.2878418 80.82495117 C-71.24780329 80.55061768 -88.97346407 75.23994206 -103.421875 62.46484375 C-111.94463752 53.42742166 -115.01851253 41.86841977 -114.8828125 29.8046875 C-114.21252021 19.39033143 -108.65515873 10.09985825 -101.296875 2.90234375 C-74.94764698 -19.47862704 -27.68914958 -20.31663211 0 0 Z " fill="#FEFDFD" transform="translate(1792.671875,2040.47265625)"/>
<path d="M0 0 C1.328125 1.52734375 1.328125 1.52734375 1.328125 5.52734375 C-0.26074219 7.09887695 -0.26074219 7.09887695 -2.46875 8.578125 C-3.2628125 9.11115234 -4.056875 9.64417969 -4.875 10.19335938 C-5.71546875 10.73669922 -6.5559375 11.28003906 -7.421875 11.83984375 C-8.659375 12.68385742 -8.659375 12.68385742 -9.921875 13.54492188 C-16.06883292 17.59497399 -16.06883292 17.59497399 -18.79003906 17.28979492 C-20.671875 16.52734375 -20.671875 16.52734375 -23.109375 14.71484375 C-33.4972126 7.64282464 -47.01938071 6.92131233 -59.0390625 9.15234375 C-67.5589951 11.58041614 -73.45669636 16.2404389 -78.734375 23.27734375 C-80.71271813 30.13559994 -80.77696113 38.10831839 -77.8359375 44.71875 C-73.21139284 51.90386468 -65.74976169 55.52786469 -57.87890625 58.1171875 C-54.63018942 58.72093134 -51.40149001 58.71172326 -48.109375 58.71484375 C-47.45646484 58.72708984 -46.80355469 58.73933594 -46.13085938 58.75195312 C-39.93716316 58.76987124 -35.03721932 57.68467908 -28.671875 56.52734375 C-28.671875 48.27734375 -28.671875 40.02734375 -28.671875 31.52734375 C-19.101875 31.52734375 -9.531875 31.52734375 0.328125 31.52734375 C0.328125 44.06734375 0.328125 56.60734375 0.328125 69.52734375 C-16.391186 76.69276275 -30.88817884 80.93724897 -48.984375 80.83984375 C-50.61959106 80.83247192 -50.61959106 80.83247192 -52.2878418 80.82495117 C-71.24780329 80.55061768 -88.97346407 75.23994206 -103.421875 62.46484375 C-111.94463752 53.42742166 -115.01851253 41.86841977 -114.8828125 29.8046875 C-114.21252021 19.39033143 -108.65515873 10.09985825 -101.296875 2.90234375 C-74.94764698 -19.47862704 -27.68914958 -20.31663211 0 0 Z " fill="#FEFDFD" transform="translate(1331.671875,2040.47265625)"/>
<path d="M0 0 C-1.43652105 4.91441412 -3.54159615 9.00238358 -6.125 13.375 C-6.49753906 14.01566406 -6.87007812 14.65632813 -7.25390625 15.31640625 C-8.16434002 16.88048477 -9.08148191 18.44065534 -10 20 C-11.155 19.566875 -12.31 19.13375 -13.5 18.6875 C-23.66210363 15.35826168 -33.89819897 13.73416821 -44.5625 13.625 C-45.29976318 13.61122314 -46.03702637 13.59744629 -46.79663086 13.58325195 C-51.86921576 13.62655803 -55.53723279 14.53282586 -60 17 C-61.05749557 20.08369887 -61.05749557 20.08369887 -61 23 C-54.38857345 28.54805026 -44.96790428 29.04118918 -36.6875 30.4375 C-6.65624667 35.55478253 -6.65624667 35.55478253 1.84375 46.25390625 C5.49376148 51.76591682 5.69849364 56.47770222 5 63 C3.13301256 70.10457636 -2.13754683 74.90419314 -8 79 C-29.64040859 90.8149897 -59.04426619 89.55914552 -82.32470703 83.38330078 C-87.32111167 81.91082518 -92.33270946 80.33364527 -97 78 C-95.62394084 73.23448987 -93.53221934 69.2751447 -90.875 65.125 C-90.31619141 64.23554688 -90.31619141 64.23554688 -89.74609375 63.328125 C-88.83635 61.8818657 -87.91896202 60.44041954 -87 59 C-83.05492305 59.55620998 -79.67451304 60.41602195 -76 61.9375 C-62.34021974 67.00008702 -43.63853347 68.95136006 -30 63 C-29.67 61.35 -29.34 59.7 -29 58 C-33.51590343 54.58106823 -37.43146253 53.16493797 -43.0390625 52.25390625 C-43.80117035 52.11605209 -44.5632782 51.97819794 -45.34848022 51.83616638 C-47.77184072 51.39823222 -50.19772801 50.97816851 -52.625 50.5625 C-82.41913089 45.45845799 -82.41913089 45.45845799 -92.375 34.484375 C-96.03929848 29.24239245 -95.88258827 23.13125477 -95 17 C-92.70690004 9.46552869 -88.69316839 4.95845967 -82 1 C-81.3709375 0.62230469 -80.741875 0.24460937 -80.09375 -0.14453125 C-57.32828142 -12.6002282 -23.2453197 -9.29280249 0 0 Z " fill="#FEFDFC" transform="translate(1145,2034)"/>
<path d="M0 0 C10.89 0 21.78 0 33 0 C33 29.7 33 59.4 33 90 C22.11 90 11.22 90 0 90 C0 60.3 0 30.6 0 0 Z " fill="#FFFFFF" transform="translate(1490,2029)"/>
<path d="M0 0 C10.89 0 21.78 0 33 0 C33 29.7 33 59.4 33 90 C22.11 90 11.22 90 0 90 C0 60.3 0 30.6 0 0 Z " fill="#FFFFFF" transform="translate(1166,2029)"/>
<path d="M0 0 C37.06273626 -0.8539801 37.06273626 -0.8539801 48.75 8.375 C53.4936803 13.18055439 55.13727583 17.80715035 55.375 24.5 C55.13355521 32.17374527 52.42748805 37.57251195 47 43 C36.80506673 49.73593805 25.75943432 50.41560685 13.875 50.1875 C9.29625 50.125625 4.7175 50.06375 0 50 C0 33.5 0 17 0 0 Z " fill="#F05C32" transform="translate(836,2049)"/>
</svg>
